<svg width="27" height="23" viewBox="0 0 27 23" fill="none" xmlns="http://www.w3.org/2000/svg">
<path fill-rule="evenodd" clip-rule="evenodd" d="M24.2033 0.15735C24.5352 0.018025 24.8986 -0.0300273 25.2555 0.0181941C25.6124 0.0664155 25.9498 0.209148 26.2327 0.431536C26.5155 0.653923 26.7334 0.947835 26.8636 1.28268C26.9939 1.61753 27.0317 1.98106 26.9733 2.33546L23.9265 20.7636C23.631 22.5412 21.675 23.5606 20.0402 22.6751C18.6726 21.9344 16.6415 20.7931 14.8145 19.6022C13.901 19.0061 11.1028 17.0973 11.4467 15.739C11.7422 14.5776 16.444 10.2133 19.1307 7.61863C20.1853 6.59924 19.7043 6.01117 18.459 6.94886C15.3653 9.27699 10.4015 12.8174 8.75993 13.814C7.31179 14.6928 6.55681 14.8428 5.65407 14.6928C4.00711 14.4195 2.4797 13.9962 1.23306 13.4805C-0.451521 12.7839 -0.369576 10.4745 1.23172 9.80209L24.2033 0.15735Z" fill="white"/>
</svg>
