<svg width="29" height="23" viewBox="0 0 29 23" fill="none" xmlns="http://www.w3.org/2000/svg">
<path d="M9.10963 23C20.0535 23 26.0402 14.149 26.0402 6.48688C26.0402 6.2392 26.0402 5.98798 26.0293 5.7403C27.1949 4.91675 28.2008 3.89713 29 2.72923C27.9113 3.19779 26.7575 3.5066 25.5762 3.64565C26.8205 2.91966 27.7525 1.77738 28.1989 0.431126C27.0298 1.10716 25.7502 1.58173 24.4162 1.83405C23.5193 0.901759 22.3325 0.284142 21.0397 0.0768701C19.7468 -0.130402 18.4199 0.0842367 17.2647 0.68754C16.1094 1.29084 15.1902 2.24914 14.6494 3.414C14.1087 4.57885 13.9765 5.88525 14.2734 7.13085C11.9077 7.01506 9.59323 6.41517 7.48027 5.3701C5.3673 4.32503 3.50299 2.85811 2.00825 1.06448C1.24943 2.34371 1.01785 3.85688 1.36055 5.29672C1.70324 6.73656 2.59451 7.99512 3.85337 8.81683C2.91004 8.78555 1.98744 8.5383 1.16 8.09503V8.17464C1.16163 9.51472 1.63724 10.8132 2.50646 11.8505C3.37567 12.8878 4.58517 13.6004 5.9305 13.8677C5.41985 14.005 4.89235 14.0735 4.36269 14.0712C3.98928 14.0723 3.61663 14.0385 3.24981 13.9703C3.63005 15.1239 4.37043 16.1325 5.36726 16.8549C6.36409 17.5772 7.56743 17.9772 8.80875 17.9987C6.70001 19.6153 4.09516 20.4921 1.41375 20.4878C0.941269 20.4898 0.469117 20.4632 0 20.4082C2.7215 22.1017 5.8821 23.001 9.10963 23Z" fill="white"/>
</svg>
