<svg width="29" height="29" viewBox="0 0 29 29" fill="none" xmlns="http://www.w3.org/2000/svg">
<path fill-rule="evenodd" clip-rule="evenodd" d="M14.201 28.402C22.044 28.402 28.402 22.044 28.402 14.201C28.402 6.358 22.044 0 14.201 0C6.358 0 0 6.358 0 14.201C0 22.044 6.358 28.402 14.201 28.402ZM19.4412 14.201C19.4412 14.9928 19.3713 15.7614 19.2782 16.5299H23.2141C23.4004 15.7847 23.5169 15.0045 23.5169 14.201C23.5169 13.3975 23.4004 12.6173 23.2141 11.872H19.2782C19.3713 12.6406 19.4412 13.4091 19.4412 14.201ZM18.824 18.8589C18.4514 20.3145 17.9157 21.7119 17.217 23.0044C19.3412 22.2731 21.131 20.8016 22.2592 18.8589H18.824ZM11.4761 16.5299H16.9259C17.0307 15.7614 17.1122 14.9928 17.1122 14.201C17.1122 13.4091 17.0307 12.6289 16.9259 11.872H11.4761C11.3597 12.6289 11.2898 13.4091 11.2898 14.201C11.2898 14.9928 11.3597 15.7614 11.4761 16.5299ZM11.9769 18.8589C12.4543 20.5241 13.2345 22.0729 14.201 23.4702C15.1675 22.0729 15.9477 20.5241 16.4252 18.8589H11.9769ZM6.14282 9.54304H9.5431C9.95067 8.08744 10.4747 6.69006 11.1734 5.39748C9.04796 6.12119 7.25939 7.59511 6.14282 9.54304ZM9.5431 18.8589H6.14282C7.26636 20.8009 9.05242 22.2728 11.1734 23.0044C10.4747 21.7119 9.95067 20.3145 9.5431 18.8589ZM4.88518 14.201C4.88518 15.0045 5.00163 15.7847 5.18794 16.5299H9.12389C9.03073 15.7614 8.96086 14.9928 8.96086 14.201C8.96086 13.4091 9.03073 12.6406 9.12389 11.872H5.18794C5.00163 12.6173 4.88518 13.3975 4.88518 14.201ZM16.4252 9.54304C15.9477 7.87783 15.1675 6.31742 14.201 4.92005C13.2345 6.31742 12.4543 7.87783 11.9769 9.54304H16.4252ZM18.824 9.54304H22.2592C21.1413 7.61 19.3597 6.13111 17.217 5.39748C17.9199 6.70857 18.4596 8.10078 18.824 9.54304ZM2.55622 14.201C2.55622 7.79632 7.76145 2.55615 14.201 2.55615C15.7302 2.55615 17.2445 2.85735 18.6573 3.44256C20.0701 4.02777 21.3538 4.88552 22.4352 5.96684C23.5165 7.04816 24.3742 8.33187 24.9594 9.74469C25.5446 11.1575 25.8458 12.6717 25.8458 14.201C25.8458 17.2894 24.619 20.2513 22.4352 22.4351C20.2513 24.6189 17.2894 25.8458 14.201 25.8458C12.6718 25.8458 11.1576 25.5446 9.74475 24.9594C8.33194 24.3742 7.04822 23.5164 5.9669 22.4351C3.78308 20.2513 2.55622 17.2894 2.55622 14.201Z" fill="white"/>
</svg>
