<svg width="434" height="434" viewBox="0 0 434 434" fill="none" xmlns="http://www.w3.org/2000/svg">
<rect x="1.2869" y="1.2869" width="431.426" height="431.426" stroke="white" stroke-width="1.4262"/>
<mask id="mask0_262_446" style="mask-type:alpha" maskUnits="userSpaceOnUse" x="2" y="2" width="430" height="430">
<rect x="2" y="2" width="430" height="430" fill="#D9D9D9"/>
</mask>
<g mask="url(#mask0_262_446)">
<path opacity="0.7" d="M203.685 545.812C162.288 544.089 121.589 534.556 83.7327 517.714L217.357 217.357L203.685 545.812Z" fill="#00EE76"/>
<path d="M65.1897 508.759C62.1381 507.165 59.1117 505.524 56.1117 503.835L217.357 217.357L65.1897 508.759Z" fill="#595959"/>
<path opacity="0.3" d="M354.308 516.212C307.145 537.824 255.537 547.967 203.704 545.813L217.357 217.357L354.308 516.212Z" fill="#C91DF4"/>
<path opacity="0.3" d="M38.447 493.149C-19.7945 455.367 -64.58 400.116 -89.4907 335.317L217.357 217.357L38.447 493.149Z" fill="#32B5FF"/>
<path d="M56.1115 503.835C50.111 500.458 44.2181 496.893 38.4416 493.145L217.357 217.357L56.1115 503.835Z" fill="white"/>
<path d="M-100.226 132.439C-82.2932 65.3722 -43.5887 5.70415 10.3402 -38.0134C64.269 -81.7309 130.654 -107.254 199.979 -110.923C269.305 -114.593 338.013 -96.2212 396.256 -58.4413C454.499 -20.6614 499.287 34.5871 524.199 99.3859L217.357 217.357L-100.226 132.439Z" fill="#00EE76"/>
<mask id="path-9-inside-1_262_446" fill="white">
<path d="M83.7807 517.735C77.4891 514.938 71.2869 511.943 65.1834 508.755L217.357 217.357L83.7807 517.735Z"/>
</mask>
<path d="M83.7807 517.735C77.4891 514.938 71.2869 511.943 65.1834 508.755L217.357 217.357L83.7807 517.735Z" fill="black" stroke="white" stroke-width="2" mask="url(#path-9-inside-1_262_446)"/>
<path d="M-89.4925 335.312C-114.402 270.512 -118.158 199.489 -100.222 132.423L217.357 217.357L-89.4925 335.312Z" fill="#32B5FF"/>
<path d="M524.229 99.4632C554.215 177.515 553.332 264.061 521.761 341.485C490.189 418.909 430.301 481.394 354.286 516.221L217.357 217.357L524.229 99.4632Z" fill="#C91DF4"/>
</g>
<path d="M147.414 79.0537H144.751V77.085H147.405C147.815 77.085 148.144 77 148.39 76.8301C148.642 76.6543 148.823 76.4111 148.935 76.1006C149.052 75.79 149.11 75.4385 149.11 75.0459C149.11 74.665 149.052 74.3076 148.935 73.9736C148.823 73.6338 148.642 73.3613 148.39 73.1562C148.144 72.9512 147.818 72.8486 147.414 72.8486H145.463V83.6768H143.116V70.8799H147.414C148.264 70.8799 148.993 71.0586 149.603 71.416C150.212 71.7734 150.678 72.2656 151 72.8926C151.328 73.5137 151.492 74.2256 151.492 75.0283C151.492 75.8545 151.328 76.5693 151 77.1729C150.672 77.7705 150.203 78.2334 149.594 78.5615C148.99 78.8896 148.264 79.0537 147.414 79.0537ZM159.644 70.8799H161.999V79.7217C161.999 80.7002 161.817 81.4941 161.454 82.1035C161.091 82.7129 160.596 83.1582 159.969 83.4395C159.342 83.7148 158.636 83.8525 157.851 83.8525C157.048 83.8525 156.333 83.7148 155.706 83.4395C155.079 83.1582 154.587 82.7129 154.229 82.1035C153.878 81.4941 153.702 80.7002 153.702 79.7217V70.8799H156.049V79.7217C156.049 80.3018 156.119 80.75 156.26 81.0664C156.406 81.3828 156.611 81.5996 156.875 81.7168C157.139 81.834 157.464 81.8926 157.851 81.8926C158.237 81.8926 158.562 81.834 158.826 81.7168C159.09 81.5996 159.292 81.3828 159.433 81.0664C159.573 80.75 159.644 80.3018 159.644 79.7217V70.8799ZM168.841 77.999H166.222L166.213 76.2588H168.489C168.841 76.2588 169.134 76.1943 169.368 76.0654C169.608 75.9307 169.787 75.7373 169.904 75.4854C170.027 75.2334 170.089 74.9258 170.089 74.5625C170.089 74.1523 170.033 73.8242 169.922 73.5781C169.816 73.3262 169.646 73.1416 169.412 73.0244C169.178 72.9072 168.873 72.8486 168.498 72.8486H166.977V83.6768H164.622V70.8799H168.498C169.119 70.8799 169.673 70.9502 170.159 71.0908C170.645 71.2256 171.059 71.4365 171.398 71.7236C171.738 72.0107 171.996 72.374 172.172 72.8135C172.353 73.2471 172.444 73.7627 172.444 74.3604C172.444 74.8877 172.336 75.3711 172.119 75.8105C171.902 76.25 171.574 76.6104 171.135 76.8916C170.695 77.1729 170.133 77.334 169.447 77.375L168.841 77.999ZM168.753 83.6768H165.51L166.512 81.7168H168.753C169.116 81.7168 169.409 81.6406 169.632 81.4883C169.86 81.3359 170.03 81.125 170.142 80.8555C170.253 80.5801 170.309 80.2637 170.309 79.9062C170.309 79.5195 170.259 79.1826 170.159 78.8955C170.065 78.6084 169.91 78.3887 169.693 78.2363C169.482 78.0781 169.198 77.999 168.841 77.999H166.661L166.679 76.2588H169.394L169.948 76.9355C170.593 76.9297 171.114 77.0703 171.513 77.3574C171.911 77.6445 172.201 78.0166 172.383 78.4736C172.564 78.9248 172.655 79.4111 172.655 79.9326C172.655 80.7471 172.503 81.4326 172.198 81.9893C171.893 82.5459 171.451 82.9678 170.871 83.2549C170.291 83.5361 169.585 83.6768 168.753 83.6768ZM182.195 81.7168V83.6768H176.878V81.7168H182.195ZM177.555 70.8799V83.6768H175.199V70.8799H177.555ZM186.778 70.8799V83.6768H184.44V70.8799H186.778ZM195.826 79.458H198.173C198.132 80.4014 197.938 81.2012 197.593 81.8574C197.253 82.5078 196.763 83.0029 196.125 83.3428C195.492 83.6826 194.721 83.8525 193.813 83.8525C193.122 83.8525 192.504 83.7324 191.959 83.4922C191.414 83.2461 190.951 82.8916 190.57 82.4287C190.195 81.9658 189.908 81.3975 189.709 80.7236C189.515 80.0439 189.419 79.2676 189.419 78.3945V76.1709C189.419 75.2979 189.521 74.5215 189.726 73.8418C189.931 73.1621 190.224 72.5879 190.605 72.1191C190.992 71.6504 191.461 71.2959 192.012 71.0557C192.562 70.8154 193.183 70.6953 193.875 70.6953C194.789 70.6953 195.554 70.8682 196.169 71.2139C196.784 71.5596 197.259 72.0664 197.593 72.7344C197.927 73.3965 198.123 74.2051 198.181 75.1602H195.835C195.811 74.5391 195.735 74.0469 195.606 73.6836C195.477 73.3145 195.275 73.0508 195 72.8926C194.724 72.7344 194.349 72.6553 193.875 72.6553C193.506 72.6553 193.186 72.7227 192.917 72.8574C192.647 72.9922 192.428 73.2031 192.258 73.4902C192.088 73.7715 191.962 74.1318 191.88 74.5713C191.798 75.0107 191.757 75.5381 191.757 76.1533V78.3945C191.757 78.9863 191.792 79.502 191.862 79.9414C191.932 80.3809 192.044 80.7471 192.196 81.04C192.354 81.3271 192.565 81.5439 192.829 81.6904C193.093 81.8311 193.421 81.9014 193.813 81.9014C194.288 81.9014 194.666 81.8311 194.947 81.6904C195.228 81.5439 195.436 81.2949 195.571 80.9434C195.712 80.5859 195.797 80.0908 195.826 79.458ZM210.591 80.3457C210.591 80.0938 210.564 79.8711 210.511 79.6777C210.465 79.4785 210.371 79.2969 210.23 79.1328C210.09 78.9688 209.887 78.8076 209.624 78.6494C209.36 78.4854 209.02 78.3184 208.604 78.1484C208.112 77.9492 207.646 77.7383 207.207 77.5156C206.767 77.2871 206.375 77.0234 206.029 76.7246C205.683 76.4258 205.411 76.0742 205.212 75.6699C205.018 75.2656 204.922 74.7939 204.922 74.2549C204.922 73.7275 205.015 73.2471 205.203 72.8135C205.396 72.374 205.669 71.999 206.02 71.6885C206.372 71.3721 206.788 71.1289 207.268 70.959C207.755 70.7891 208.291 70.7041 208.877 70.7041C209.703 70.7041 210.412 70.877 211.004 71.2227C211.595 71.5684 212.052 72.0371 212.375 72.6289C212.697 73.2207 212.858 73.8887 212.858 74.6328H210.511C210.511 74.2461 210.453 73.9033 210.336 73.6045C210.224 73.2998 210.046 73.0625 209.8 72.8926C209.553 72.7227 209.237 72.6377 208.85 72.6377C208.487 72.6377 208.188 72.7109 207.954 72.8574C207.719 72.998 207.547 73.1914 207.435 73.4375C207.324 73.6777 207.268 73.9531 207.268 74.2637C207.268 74.4863 207.318 74.6885 207.418 74.8701C207.523 75.0459 207.667 75.207 207.848 75.3535C208.03 75.5 208.25 75.6406 208.508 75.7754C208.771 75.9043 209.064 76.0303 209.386 76.1533C209.978 76.376 210.497 76.6221 210.942 76.8916C211.387 77.1553 211.757 77.4541 212.05 77.7881C212.348 78.1162 212.571 78.4883 212.717 78.9043C212.864 79.3203 212.937 79.7949 212.937 80.3281C212.937 80.8555 212.846 81.3359 212.665 81.7695C212.483 82.2031 212.219 82.5752 211.874 82.8857C211.528 83.1963 211.109 83.4365 210.617 83.6064C210.131 83.7705 209.589 83.8525 208.991 83.8525C208.417 83.8525 207.869 83.7705 207.347 83.6064C206.832 83.4365 206.375 83.1816 205.976 82.8418C205.578 82.502 205.264 82.0742 205.036 81.5586C204.807 81.0371 204.693 80.4248 204.693 79.7217H207.04C207.04 80.1143 207.084 80.4541 207.172 80.7412C207.259 81.0225 207.391 81.251 207.567 81.4268C207.743 81.5967 207.954 81.7227 208.2 81.8047C208.446 81.8809 208.724 81.9189 209.035 81.9189C209.404 81.9189 209.703 81.8516 209.931 81.7168C210.16 81.582 210.327 81.3975 210.432 81.1631C210.538 80.9229 210.591 80.6504 210.591 80.3457ZM219.832 72.9014L216.905 83.6768H214.426L218.461 70.8799H220.007L219.832 72.9014ZM222.143 83.6768L219.216 72.9014L219.014 70.8799H220.579L224.631 83.6768H222.143ZM222.222 78.9131V80.873H216.351V78.9131H222.222ZM233.511 81.7168V83.6768H228.194V81.7168H233.511ZM228.871 70.8799V83.6768H226.515V70.8799H228.871ZM242.884 81.7168V83.6768H237.33V81.7168H242.884ZM238.006 70.8799V83.6768H235.651V70.8799H238.006ZM242.137 76.1357V78.043H237.33V76.1357H242.137ZM242.849 70.8799V72.8486H237.33V70.8799H242.849ZM253.668 77.2607V79.1416H249.545V77.2607H253.668ZM268.327 78.9746V80.8555H260.513L260.425 79.4053L264.872 70.8799H266.657L264.837 74.3604L262.684 78.9746H268.327ZM267.166 70.8799V83.6768H264.908V70.8799H267.166ZM277.638 76.1797V78.3418C277.638 79.3203 277.55 80.1582 277.374 80.8555C277.199 81.5527 276.95 82.124 276.627 82.5693C276.311 83.0088 275.93 83.334 275.485 83.5449C275.039 83.75 274.547 83.8525 274.008 83.8525C273.58 83.8525 273.179 83.7881 272.804 83.6592C272.429 83.5244 272.089 83.3193 271.785 83.0439C271.486 82.7627 271.228 82.4053 271.011 81.9717C270.8 81.5381 270.636 81.0225 270.519 80.4248C270.408 79.8213 270.352 79.127 270.352 78.3418V76.1797C270.352 75.1953 270.44 74.3574 270.616 73.666C270.797 72.9746 271.049 72.4092 271.371 71.9697C271.694 71.5303 272.078 71.2109 272.523 71.0117C272.968 70.8066 273.46 70.7041 273.999 70.7041C274.427 70.7041 274.829 70.7686 275.204 70.8975C275.579 71.0264 275.912 71.2285 276.205 71.5039C276.504 71.7734 276.762 72.125 276.979 72.5586C277.196 72.9863 277.36 73.502 277.471 74.1055C277.582 74.7031 277.638 75.3945 277.638 76.1797ZM275.388 78.6582V75.8369C275.388 75.3564 275.368 74.9346 275.327 74.5713C275.286 74.208 275.227 73.9033 275.151 73.6572C275.08 73.4053 274.987 73.2002 274.87 73.042C274.752 72.8838 274.621 72.7695 274.474 72.6992C274.328 72.623 274.169 72.585 273.999 72.585C273.783 72.585 273.589 72.6436 273.419 72.7607C273.249 72.8721 273.103 73.0566 272.98 73.3145C272.857 73.5664 272.763 73.9004 272.699 74.3164C272.634 74.7324 272.602 75.2393 272.602 75.8369V78.6582C272.602 79.1445 272.622 79.5723 272.663 79.9414C272.71 80.3047 272.772 80.6152 272.848 80.873C272.93 81.1309 273.027 81.3418 273.138 81.5059C273.249 81.6641 273.378 81.7812 273.525 81.8574C273.671 81.9336 273.832 81.9717 274.008 81.9717C274.225 81.9717 274.418 81.9131 274.588 81.7959C274.764 81.6729 274.911 81.4824 275.028 81.2246C275.145 80.9668 275.233 80.627 275.291 80.2051C275.356 79.7773 275.388 79.2617 275.388 78.6582ZM279.945 74.0176V73.3408C279.945 72.8545 280.033 72.4121 280.208 72.0137C280.39 71.6152 280.657 71.2959 281.008 71.0557C281.36 70.8154 281.787 70.6953 282.291 70.6953C282.813 70.6953 283.249 70.8154 283.601 71.0557C283.958 71.2959 284.222 71.6152 284.392 72.0137C284.568 72.4121 284.656 72.8545 284.656 73.3408V74.0176C284.656 74.4922 284.568 74.9287 284.392 75.3271C284.216 75.7256 283.952 76.0449 283.601 76.2852C283.255 76.5254 282.827 76.6455 282.318 76.6455C281.802 76.6455 281.366 76.5254 281.008 76.2852C280.657 76.0449 280.39 75.7256 280.208 75.3271C280.033 74.9287 279.945 74.4922 279.945 74.0176ZM281.448 73.3408V74.0176C281.448 74.2344 281.48 74.4395 281.544 74.6328C281.609 74.8262 281.702 74.9814 281.826 75.0986C281.954 75.2158 282.116 75.2744 282.309 75.2744C282.502 75.2744 282.661 75.2158 282.784 75.0986C282.907 74.9756 282.997 74.8203 283.056 74.6328C283.12 74.4395 283.153 74.2344 283.153 74.0176V73.3408C283.153 73.1182 283.12 72.9102 283.056 72.7168C282.992 72.5234 282.898 72.3682 282.775 72.251C282.652 72.1279 282.491 72.0664 282.291 72.0664C282.104 72.0664 281.946 72.1279 281.817 72.251C281.694 72.3682 281.6 72.5234 281.536 72.7168C281.477 72.9102 281.448 73.1182 281.448 73.3408ZM285.025 81.2158V80.5391C285.025 80.0586 285.116 79.6191 285.297 79.2207C285.479 78.8223 285.745 78.5029 286.097 78.2627C286.449 78.0225 286.879 77.9023 287.389 77.9023C287.905 77.9023 288.335 78.0225 288.681 78.2627C289.033 78.5029 289.296 78.8223 289.472 79.2207C289.654 79.6191 289.744 80.0586 289.744 80.5391V81.2158C289.744 81.6963 289.654 82.1357 289.472 82.5342C289.296 82.9326 289.036 83.252 288.69 83.4922C288.344 83.7324 287.913 83.8525 287.398 83.8525C286.882 83.8525 286.446 83.7324 286.088 83.4922C285.737 83.252 285.47 82.9326 285.288 82.5342C285.113 82.1357 285.025 81.6963 285.025 81.2158ZM286.528 80.5391V81.2158C286.528 81.4385 286.563 81.6465 286.633 81.8398C286.709 82.0273 286.812 82.1826 286.941 82.3057C287.07 82.4229 287.222 82.4814 287.398 82.4814C287.615 82.4814 287.785 82.4229 287.908 82.3057C288.031 82.1826 288.116 82.0273 288.162 81.8398C288.209 81.6465 288.233 81.4385 288.233 81.2158V80.5479C288.233 80.3193 288.201 80.1084 288.136 79.915C288.077 79.7217 287.984 79.5664 287.855 79.4492C287.732 79.332 287.577 79.2734 287.389 79.2734C287.196 79.2734 287.035 79.332 286.906 79.4492C286.783 79.5664 286.689 79.7217 286.624 79.915C286.56 80.1084 286.528 80.3164 286.528 80.5391ZM287.978 72.7168L282.731 82.7188L281.632 82.0684L286.879 72.0664L287.978 72.7168Z" fill="white"/>
<path d="M26.2861 222.458H28.6328C28.5918 223.401 28.3984 224.201 28.0527 224.857C27.7129 225.508 27.2236 226.003 26.585 226.343C25.9521 226.683 25.1816 226.853 24.2734 226.853C23.582 226.853 22.9639 226.732 22.4189 226.492C21.874 226.246 21.4111 225.892 21.0303 225.429C20.6553 224.966 20.3682 224.397 20.1689 223.724C19.9756 223.044 19.8789 222.268 19.8789 221.395V219.171C19.8789 218.298 19.9814 217.521 20.1865 216.842C20.3916 216.162 20.6846 215.588 21.0654 215.119C21.4521 214.65 21.9209 214.296 22.4717 214.056C23.0225 213.815 23.6436 213.695 24.335 213.695C25.249 213.695 26.0137 213.868 26.6289 214.214C27.2441 214.56 27.7188 215.066 28.0527 215.734C28.3867 216.396 28.583 217.205 28.6416 218.16H26.2949C26.2715 217.539 26.1953 217.047 26.0664 216.684C25.9375 216.314 25.7354 216.051 25.46 215.893C25.1846 215.734 24.8096 215.655 24.335 215.655C23.9658 215.655 23.6465 215.723 23.377 215.857C23.1074 215.992 22.8877 216.203 22.7178 216.49C22.5479 216.771 22.4219 217.132 22.3398 217.571C22.2578 218.011 22.2168 218.538 22.2168 219.153V221.395C22.2168 221.986 22.252 222.502 22.3223 222.941C22.3926 223.381 22.5039 223.747 22.6562 224.04C22.8145 224.327 23.0254 224.544 23.2891 224.69C23.5527 224.831 23.8809 224.901 24.2734 224.901C24.748 224.901 25.126 224.831 25.4072 224.69C25.6885 224.544 25.8965 224.295 26.0312 223.943C26.1719 223.586 26.2568 223.091 26.2861 222.458ZM38.1377 224.717V226.677H32.583V224.717H38.1377ZM33.2597 213.88V226.677H30.9043V213.88H33.2597ZM37.3906 219.136V221.043H32.583V219.136H37.3906ZM38.1025 213.88V215.849H32.583V213.88H38.1025ZM42.3163 213.88L44.2851 218.301L46.1747 213.88H48.8027L45.6562 220.217L48.8642 226.677H46.1484L44.1796 222.168L42.2196 226.677H39.5566L42.7997 220.173L39.6269 213.88H42.3163ZM62.5653 224.717V226.677H57.2479V224.717H62.5653ZM57.9246 213.88V226.677H55.5692V213.88H57.9246ZM67.1482 213.88V226.677H64.8104V213.88H67.1482ZM75.4841 223.346C75.4841 223.094 75.4578 222.871 75.405 222.678C75.3582 222.479 75.2644 222.297 75.1238 222.133C74.9832 221.969 74.781 221.808 74.5173 221.649C74.2537 221.485 73.9138 221.318 73.4978 221.148C73.0056 220.949 72.5398 220.738 72.1004 220.516C71.6609 220.287 71.2683 220.023 70.9226 219.725C70.5769 219.426 70.3045 219.074 70.1052 218.67C69.9119 218.266 69.8152 217.794 69.8152 217.255C69.8152 216.728 69.9089 216.247 70.0964 215.813C70.2898 215.374 70.5623 214.999 70.9138 214.688C71.2654 214.372 71.6814 214.129 72.1619 213.959C72.6482 213.789 73.1843 213.704 73.7703 213.704C74.5964 213.704 75.3054 213.877 75.8972 214.223C76.489 214.568 76.9461 215.037 77.2683 215.629C77.5906 216.221 77.7517 216.889 77.7517 217.633H75.405C75.405 217.246 75.3464 216.903 75.2293 216.604C75.1179 216.3 74.9392 216.062 74.6931 215.893C74.447 215.723 74.1306 215.638 73.7439 215.638C73.3806 215.638 73.0818 215.711 72.8474 215.857C72.613 215.998 72.4402 216.191 72.3289 216.438C72.2175 216.678 72.1619 216.953 72.1619 217.264C72.1619 217.486 72.2117 217.688 72.3113 217.87C72.4168 218.046 72.5603 218.207 72.742 218.354C72.9236 218.5 73.1433 218.641 73.4011 218.775C73.6648 218.904 73.9578 219.03 74.28 219.153C74.8718 219.376 75.3904 219.622 75.8357 219.892C76.281 220.155 76.6502 220.454 76.9431 220.788C77.242 221.116 77.4646 221.488 77.6111 221.904C77.7576 222.32 77.8308 222.795 77.8308 223.328C77.8308 223.855 77.74 224.336 77.5584 224.77C77.3767 225.203 77.113 225.575 76.7673 225.886C76.4216 226.196 76.0027 226.437 75.5105 226.606C75.0242 226.771 74.4822 226.853 73.8845 226.853C73.3103 226.853 72.7625 226.771 72.241 226.606C71.7254 226.437 71.2683 226.182 70.8699 225.842C70.4714 225.502 70.158 225.074 69.9295 224.559C69.7009 224.037 69.5867 223.425 69.5867 222.722H71.9334C71.9334 223.114 71.9773 223.454 72.0652 223.741C72.1531 224.022 72.2849 224.251 72.4607 224.427C72.6365 224.597 72.8474 224.723 73.0935 224.805C73.3396 224.881 73.6179 224.919 73.9285 224.919C74.2976 224.919 74.5964 224.852 74.825 224.717C75.0535 224.582 75.2205 224.397 75.3259 224.163C75.4314 223.923 75.4841 223.65 75.4841 223.346ZM85.0681 213.88V226.677H82.7302V213.88H85.0681ZM88.2937 213.88V215.849H79.5573V213.88H88.2937ZM92.8679 213.88V226.677H90.53V213.88H92.8679ZM104.561 213.88V226.677H102.267L97.9957 218.248V226.677H95.7457V213.88H98.0045L102.311 222.388V213.88H104.561ZM115.877 220.032V225.191C115.707 225.385 115.455 225.613 115.121 225.877C114.787 226.135 114.344 226.363 113.794 226.562C113.249 226.756 112.572 226.853 111.763 226.853C111.066 226.853 110.43 226.741 109.856 226.519C109.288 226.296 108.798 225.959 108.388 225.508C107.984 225.051 107.671 224.482 107.448 223.803C107.231 223.123 107.123 222.32 107.123 221.395V219.162C107.123 218.242 107.222 217.442 107.421 216.763C107.627 216.077 107.922 215.506 108.309 215.049C108.702 214.592 109.173 214.252 109.724 214.029C110.275 213.807 110.902 213.695 111.605 213.695C112.537 213.695 113.304 213.856 113.908 214.179C114.517 214.495 114.98 214.964 115.296 215.585C115.619 216.206 115.812 216.968 115.877 217.87H113.591C113.545 217.331 113.448 216.9 113.301 216.578C113.155 216.256 112.947 216.021 112.677 215.875C112.414 215.729 112.071 215.655 111.649 215.655C111.274 215.655 110.949 215.723 110.673 215.857C110.404 215.986 110.178 216.191 109.997 216.473C109.821 216.754 109.689 217.114 109.601 217.554C109.519 217.993 109.478 218.523 109.478 219.145V221.395C109.478 222.016 109.528 222.549 109.628 222.994C109.733 223.439 109.885 223.803 110.085 224.084C110.284 224.365 110.533 224.57 110.832 224.699C111.13 224.828 111.479 224.893 111.878 224.893C112.229 224.893 112.51 224.857 112.721 224.787C112.932 224.717 113.099 224.638 113.222 224.55C113.351 224.456 113.454 224.386 113.53 224.339V221.843H111.579V220.032H115.877ZM127.064 220.261V222.142H122.942V220.261H127.064ZM139.429 213.845V226.677H137.17V216.64L134.674 217.633V215.717L139.165 213.845H139.429ZM151.035 219.18V221.342C151.035 222.32 150.947 223.158 150.771 223.855C150.595 224.553 150.346 225.124 150.024 225.569C149.707 226.009 149.327 226.334 148.881 226.545C148.436 226.75 147.944 226.853 147.405 226.853C146.977 226.853 146.576 226.788 146.201 226.659C145.826 226.524 145.486 226.319 145.181 226.044C144.882 225.763 144.624 225.405 144.408 224.972C144.197 224.538 144.033 224.022 143.915 223.425C143.804 222.821 143.748 222.127 143.748 221.342V219.18C143.748 218.195 143.836 217.357 144.012 216.666C144.194 215.975 144.446 215.409 144.768 214.97C145.09 214.53 145.474 214.211 145.919 214.012C146.365 213.807 146.857 213.704 147.396 213.704C147.824 213.704 148.225 213.769 148.6 213.897C148.975 214.026 149.309 214.229 149.602 214.504C149.901 214.773 150.159 215.125 150.375 215.559C150.592 215.986 150.756 216.502 150.868 217.105C150.979 217.703 151.035 218.395 151.035 219.18ZM148.785 221.658V218.837C148.785 218.356 148.764 217.935 148.723 217.571C148.682 217.208 148.623 216.903 148.547 216.657C148.477 216.405 148.383 216.2 148.266 216.042C148.149 215.884 148.017 215.77 147.871 215.699C147.724 215.623 147.566 215.585 147.396 215.585C147.179 215.585 146.986 215.644 146.816 215.761C146.646 215.872 146.499 216.057 146.376 216.314C146.253 216.566 146.16 216.9 146.095 217.316C146.031 217.732 145.998 218.239 145.998 218.837V221.658C145.998 222.145 146.019 222.572 146.06 222.941C146.107 223.305 146.168 223.615 146.245 223.873C146.327 224.131 146.423 224.342 146.535 224.506C146.646 224.664 146.775 224.781 146.921 224.857C147.068 224.934 147.229 224.972 147.405 224.972C147.621 224.972 147.815 224.913 147.985 224.796C148.161 224.673 148.307 224.482 148.424 224.225C148.541 223.967 148.629 223.627 148.688 223.205C148.752 222.777 148.785 222.262 148.785 221.658ZM153.341 217.018V216.341C153.341 215.854 153.429 215.412 153.605 215.014C153.786 214.615 154.053 214.296 154.405 214.056C154.756 213.815 155.184 213.695 155.688 213.695C156.209 213.695 156.646 213.815 156.997 214.056C157.355 214.296 157.619 214.615 157.788 215.014C157.964 215.412 158.052 215.854 158.052 216.341V217.018C158.052 217.492 157.964 217.929 157.788 218.327C157.613 218.726 157.349 219.045 156.997 219.285C156.652 219.525 156.224 219.646 155.714 219.646C155.199 219.646 154.762 219.525 154.405 219.285C154.053 219.045 153.786 218.726 153.605 218.327C153.429 217.929 153.341 217.492 153.341 217.018ZM154.844 216.341V217.018C154.844 217.234 154.876 217.439 154.941 217.633C155.005 217.826 155.099 217.981 155.222 218.099C155.351 218.216 155.512 218.274 155.705 218.274C155.899 218.274 156.057 218.216 156.18 218.099C156.303 217.976 156.394 217.82 156.452 217.633C156.517 217.439 156.549 217.234 156.549 217.018V216.341C156.549 216.118 156.517 215.91 156.452 215.717C156.388 215.523 156.294 215.368 156.171 215.251C156.048 215.128 155.887 215.066 155.688 215.066C155.5 215.066 155.342 215.128 155.213 215.251C155.09 215.368 154.996 215.523 154.932 215.717C154.873 215.91 154.844 216.118 154.844 216.341ZM158.421 224.216V223.539C158.421 223.059 158.512 222.619 158.694 222.221C158.875 221.822 159.142 221.503 159.494 221.263C159.845 221.022 160.276 220.902 160.786 220.902C161.301 220.902 161.732 221.022 162.077 221.263C162.429 221.503 162.693 221.822 162.869 222.221C163.05 222.619 163.141 223.059 163.141 223.539V224.216C163.141 224.696 163.05 225.136 162.869 225.534C162.693 225.933 162.432 226.252 162.086 226.492C161.741 226.732 161.31 226.853 160.794 226.853C160.279 226.853 159.842 226.732 159.485 226.492C159.133 226.252 158.867 225.933 158.685 225.534C158.509 225.136 158.421 224.696 158.421 224.216ZM159.924 223.539V224.216C159.924 224.438 159.959 224.646 160.03 224.84C160.106 225.027 160.208 225.183 160.337 225.306C160.466 225.423 160.619 225.481 160.794 225.481C161.011 225.481 161.181 225.423 161.304 225.306C161.427 225.183 161.512 225.027 161.559 224.84C161.606 224.646 161.629 224.438 161.629 224.216V223.548C161.629 223.319 161.597 223.108 161.533 222.915C161.474 222.722 161.38 222.566 161.251 222.449C161.128 222.332 160.973 222.273 160.786 222.273C160.592 222.273 160.431 222.332 160.302 222.449C160.179 222.566 160.085 222.722 160.021 222.915C159.956 223.108 159.924 223.316 159.924 223.539ZM161.374 215.717L156.127 225.719L155.029 225.068L160.276 215.066L161.374 215.717Z" fill="white"/>
<path d="M299.112 258.717V260.677H293.795V258.717H299.112ZM294.472 247.88V260.677H292.116V247.88H294.472ZM303.695 247.88V260.677H301.357V247.88H303.695ZM312.462 258.831L315.468 261.556L313.974 262.936L311.029 260.229L312.462 258.831ZM315.389 253.259V255.298C315.389 256.218 315.28 257.026 315.063 257.724C314.852 258.415 314.545 258.992 314.141 259.455C313.742 259.918 313.265 260.267 312.708 260.501C312.157 260.735 311.542 260.853 310.862 260.853C310.183 260.853 309.564 260.735 309.008 260.501C308.457 260.267 307.979 259.918 307.575 259.455C307.177 258.992 306.866 258.415 306.643 257.724C306.421 257.026 306.309 256.218 306.309 255.298V253.259C306.309 252.339 306.418 251.533 306.635 250.842C306.851 250.15 307.162 249.573 307.566 249.11C307.971 248.642 308.448 248.29 308.999 248.056C309.556 247.821 310.171 247.704 310.845 247.704C311.524 247.704 312.142 247.821 312.699 248.056C313.256 248.29 313.736 248.642 314.141 249.11C314.545 249.573 314.852 250.15 315.063 250.842C315.28 251.533 315.389 252.339 315.389 253.259ZM313.042 255.298V253.241C313.042 252.614 312.995 252.075 312.901 251.624C312.808 251.173 312.667 250.807 312.479 250.525C312.292 250.238 312.06 250.027 311.785 249.893C311.516 249.758 311.205 249.69 310.853 249.69C310.496 249.69 310.18 249.758 309.904 249.893C309.635 250.027 309.406 250.238 309.219 250.525C309.037 250.807 308.896 251.173 308.797 251.624C308.703 252.075 308.656 252.614 308.656 253.241V255.298C308.656 255.931 308.703 256.473 308.797 256.924C308.896 257.375 309.04 257.747 309.227 258.04C309.415 258.327 309.643 258.538 309.913 258.673C310.188 258.808 310.505 258.875 310.862 258.875C311.214 258.875 311.524 258.808 311.794 258.673C312.069 258.538 312.301 258.327 312.488 258.04C312.676 257.747 312.813 257.375 312.901 256.924C312.995 256.473 313.042 255.931 313.042 255.298ZM323.786 247.88H326.141V256.722C326.141 257.7 325.96 258.494 325.597 259.104C325.233 259.713 324.738 260.158 324.111 260.439C323.484 260.715 322.778 260.853 321.993 260.853C321.19 260.853 320.475 260.715 319.849 260.439C319.222 260.158 318.729 259.713 318.372 259.104C318.02 258.494 317.845 257.7 317.845 256.722V247.88H320.191V256.722C320.191 257.302 320.262 257.75 320.402 258.066C320.549 258.383 320.754 258.6 321.017 258.717C321.281 258.834 321.606 258.893 321.993 258.893C322.38 258.893 322.705 258.834 322.969 258.717C323.232 258.6 323.434 258.383 323.575 258.066C323.716 257.75 323.786 257.302 323.786 256.722V247.88ZM331.208 247.88V260.677H328.87V247.88H331.208ZM337.329 260.677H335.088L335.105 258.717H337.329C337.979 258.717 338.492 258.6 338.867 258.365C339.248 258.125 339.517 257.753 339.676 257.249C339.84 256.745 339.922 256.095 339.922 255.298V253.25C339.922 252.641 339.878 252.122 339.79 251.694C339.702 251.261 339.558 250.909 339.359 250.64C339.16 250.37 338.899 250.171 338.577 250.042C338.255 249.913 337.856 249.849 337.382 249.849H335.044V247.88H337.382C338.12 247.88 338.788 248 339.386 248.24C339.983 248.475 340.496 248.82 340.924 249.277C341.357 249.734 341.688 250.3 341.917 250.974C342.145 251.642 342.26 252.406 342.26 253.268V255.298C342.26 256.159 342.145 256.924 341.917 257.592C341.688 258.26 341.357 258.822 340.924 259.279C340.496 259.736 339.977 260.085 339.368 260.325C338.764 260.56 338.085 260.677 337.329 260.677ZM336.441 247.88V260.677H334.086V247.88H336.441ZM347.264 247.88V260.677H344.927V247.88H347.264ZM354.748 247.88V260.677H352.41V247.88H354.748ZM357.973 247.88V249.849H349.237V247.88H357.973ZM361.871 247.88L363.971 253.795L366.063 247.88H368.647L365.158 256.001V260.677H362.785V256.001L359.296 247.88H361.871ZM379.105 254.261V256.142H374.983V254.261H379.105ZM393.65 258.796V260.677H386.197V259.06L389.677 254.595C390.029 254.108 390.304 253.687 390.503 253.329C390.703 252.966 390.843 252.641 390.925 252.354C391.007 252.061 391.048 251.779 391.048 251.51C391.048 251.129 390.999 250.795 390.899 250.508C390.799 250.215 390.653 249.989 390.459 249.831C390.272 249.667 390.041 249.585 389.765 249.585C389.419 249.585 389.135 249.682 388.913 249.875C388.69 250.068 388.523 250.335 388.412 250.675C388.306 251.015 388.253 251.401 388.253 251.835H385.995C385.995 251.079 386.144 250.388 386.443 249.761C386.748 249.134 387.181 248.633 387.744 248.258C388.312 247.883 388.995 247.695 389.792 247.695C390.553 247.695 391.195 247.842 391.716 248.135C392.238 248.422 392.633 248.835 392.903 249.374C393.178 249.907 393.316 250.543 393.316 251.281C393.316 251.691 393.26 252.096 393.149 252.494C393.038 252.893 392.882 253.288 392.683 253.681C392.484 254.073 392.241 254.472 391.954 254.876C391.672 255.274 391.353 255.685 390.996 256.106L389.062 258.796H393.65ZM403.357 255.975V257.855H395.543L395.456 256.405L399.903 247.88H401.687L399.868 251.36L397.714 255.975H403.357ZM402.197 247.88V260.677H399.938V247.88H402.197ZM405.382 251.018V250.341C405.382 249.854 405.47 249.412 405.646 249.014C405.828 248.615 406.094 248.296 406.446 248.056C406.797 247.815 407.225 247.695 407.729 247.695C408.25 247.695 408.687 247.815 409.039 248.056C409.396 248.296 409.66 248.615 409.83 249.014C410.005 249.412 410.093 249.854 410.093 250.341V251.018C410.093 251.492 410.005 251.929 409.83 252.327C409.654 252.726 409.39 253.045 409.039 253.285C408.693 253.525 408.265 253.646 407.755 253.646C407.24 253.646 406.803 253.525 406.446 253.285C406.094 253.045 405.828 252.726 405.646 252.327C405.47 251.929 405.382 251.492 405.382 251.018ZM406.885 250.341V251.018C406.885 251.234 406.917 251.439 406.982 251.633C407.046 251.826 407.14 251.981 407.263 252.099C407.392 252.216 407.553 252.274 407.747 252.274C407.94 252.274 408.098 252.216 408.221 252.099C408.344 251.976 408.435 251.82 408.494 251.633C408.558 251.439 408.59 251.234 408.59 251.018V250.341C408.59 250.118 408.558 249.91 408.494 249.717C408.429 249.523 408.335 249.368 408.212 249.251C408.089 249.128 407.928 249.066 407.729 249.066C407.541 249.066 407.383 249.128 407.254 249.251C407.131 249.368 407.038 249.523 406.973 249.717C406.914 249.91 406.885 250.118 406.885 250.341ZM410.462 258.216V257.539C410.462 257.059 410.553 256.619 410.735 256.221C410.916 255.822 411.183 255.503 411.535 255.263C411.886 255.022 412.317 254.902 412.827 254.902C413.342 254.902 413.773 255.022 414.119 255.263C414.47 255.503 414.734 255.822 414.91 256.221C415.091 256.619 415.182 257.059 415.182 257.539V258.216C415.182 258.696 415.091 259.136 414.91 259.534C414.734 259.933 414.473 260.252 414.127 260.492C413.782 260.732 413.351 260.853 412.835 260.853C412.32 260.853 411.883 260.732 411.526 260.492C411.174 260.252 410.908 259.933 410.726 259.534C410.55 259.136 410.462 258.696 410.462 258.216ZM411.965 257.539V258.216C411.965 258.438 412 258.646 412.071 258.84C412.147 259.027 412.249 259.183 412.378 259.306C412.507 259.423 412.66 259.481 412.835 259.481C413.052 259.481 413.222 259.423 413.345 259.306C413.468 259.183 413.553 259.027 413.6 258.84C413.647 258.646 413.67 258.438 413.67 258.216V257.548C413.67 257.319 413.638 257.108 413.574 256.915C413.515 256.722 413.421 256.566 413.292 256.449C413.169 256.332 413.014 256.273 412.827 256.273C412.633 256.273 412.472 256.332 412.343 256.449C412.22 256.566 412.126 256.722 412.062 256.915C411.997 257.108 411.965 257.316 411.965 257.539ZM413.415 249.717L408.168 259.719L407.07 259.068L412.317 249.066L413.415 249.717Z" fill="white"/>
<path d="M34.3594 316.677H32.1182L32.1357 314.717H34.3594C35.0098 314.717 35.5225 314.6 35.8975 314.365C36.2783 314.125 36.5479 313.753 36.7061 313.249C36.8701 312.745 36.9521 312.095 36.9521 311.298V309.25C36.9521 308.641 36.9082 308.122 36.8203 307.694C36.7324 307.261 36.5889 306.909 36.3896 306.64C36.1904 306.37 35.9297 306.171 35.6074 306.042C35.2852 305.913 34.8867 305.849 34.4121 305.849H32.0742V303.88H34.4121C35.1504 303.88 35.8184 304 36.416 304.24C37.0137 304.475 37.5264 304.82 37.9541 305.277C38.3877 305.734 38.7188 306.3 38.9473 306.974C39.1758 307.642 39.29 308.406 39.29 309.268V311.298C39.29 312.159 39.1758 312.924 38.9473 313.592C38.7188 314.26 38.3877 314.822 37.9541 315.279C37.5264 315.736 37.0078 316.085 36.3984 316.325C35.7949 316.56 35.1152 316.677 34.3594 316.677ZM33.4717 303.88V316.677H31.1162V303.88H33.4717ZM49.0849 314.717V316.677H43.5302V314.717H49.0849ZM44.207 303.88V316.677H41.8515V303.88H44.207ZM48.3379 309.136V311.043H43.5302V309.136H48.3379ZM49.0498 303.88V305.849H43.5302V303.88H49.0498ZM55.1269 314.119L57.7021 303.88H60.2421L56.4804 316.677H54.7489L55.1269 314.119ZM52.8945 303.88L55.4609 314.119L55.8564 316.677H54.1161L50.372 303.88H52.8945ZM69.3602 314.717V316.677H63.8055V314.717H69.3602ZM64.4823 303.88V316.677H62.1268V303.88H64.4823ZM68.6132 309.136V311.043H63.8055V309.136H68.6132ZM69.3251 303.88V305.849H63.8055V303.88H69.3251ZM78.5223 314.717V316.677H73.2049V314.717H78.5223ZM73.8817 303.88V316.677H71.5262V303.88H73.8817ZM88.9148 309.259V311.412C88.9148 312.314 88.8094 313.105 88.5984 313.785C88.3875 314.465 88.0828 315.033 87.6844 315.49C87.2859 315.941 86.8084 316.281 86.2518 316.51C85.6951 316.738 85.0799 316.853 84.4061 316.853C83.7264 316.853 83.1082 316.738 82.5516 316.51C81.9949 316.281 81.5145 315.941 81.1102 315.49C80.7117 315.033 80.4012 314.465 80.1785 313.785C79.9617 313.105 79.8533 312.314 79.8533 311.412V309.259C79.8533 308.339 79.9617 307.533 80.1785 306.842C80.3953 306.15 80.7029 305.573 81.1014 305.11C81.5057 304.647 81.9861 304.299 82.5428 304.064C83.0994 303.824 83.7146 303.704 84.3885 303.704C85.0682 303.704 85.6834 303.824 86.2342 304.064C86.7908 304.299 87.2684 304.647 87.6668 305.11C88.0711 305.573 88.3787 306.15 88.5896 306.842C88.8064 307.533 88.9148 308.339 88.9148 309.259ZM86.577 311.412V309.241C86.577 308.614 86.5301 308.075 86.4363 307.624C86.3426 307.173 86.202 306.807 86.0145 306.525C85.827 306.238 85.5955 306.027 85.3201 305.893C85.0506 305.758 84.74 305.69 84.3885 305.69C84.0311 305.69 83.7146 305.758 83.4393 305.893C83.1697 306.027 82.9412 306.238 82.7537 306.525C82.5721 306.807 82.4344 307.173 82.3406 307.624C82.2469 308.075 82.2 308.614 82.2 309.241V311.412C82.2 312.027 82.2469 312.555 82.3406 312.994C82.4344 313.434 82.575 313.791 82.7625 314.066C82.9559 314.342 83.1873 314.547 83.4568 314.682C83.7322 314.811 84.0486 314.875 84.4061 314.875C84.7576 314.875 85.0682 314.811 85.3377 314.682C85.6131 314.547 85.8416 314.342 86.0232 314.066C86.2107 313.791 86.3484 313.434 86.4363 312.994C86.5301 312.555 86.577 312.027 86.577 311.412ZM95.783 312.054H93.1199V310.085H95.7742C96.1843 310.085 96.5125 310 96.7586 309.83C97.0105 309.654 97.1922 309.411 97.3035 309.101C97.4207 308.79 97.4793 308.438 97.4793 308.046C97.4793 307.665 97.4207 307.308 97.3035 306.974C97.1922 306.634 97.0105 306.361 96.7586 306.156C96.5125 305.951 96.1873 305.849 95.783 305.849H93.8318V316.677H91.4851V303.88H95.783C96.6326 303.88 97.3621 304.059 97.9714 304.416C98.5808 304.773 99.0466 305.266 99.3689 305.893C99.697 306.514 99.8611 307.226 99.8611 308.028C99.8611 308.854 99.697 309.569 99.3689 310.173C99.0408 310.771 98.572 311.233 97.9627 311.562C97.3591 311.89 96.6326 312.054 95.783 312.054ZM103.02 303.88H105.121L107.907 313.021L110.667 303.88H112.574L108.777 316.677H107.019L103.02 303.88ZM102.203 303.88H104.18L104.488 312.177V316.677H102.203V303.88ZM111.607 303.88H113.593V316.677H111.308V312.177L111.607 303.88ZM123.617 314.717V316.677H118.062V314.717H123.617ZM118.739 303.88V316.677H116.383V303.88H118.739ZM122.87 309.136V311.043H118.062V309.136H122.87ZM123.582 303.88V305.849H118.062V303.88H123.582ZM134.598 303.88V316.677H132.304L128.033 308.248V316.677H125.783V303.88H128.042L132.348 312.388V303.88H134.598ZM141.985 303.88V316.677H139.647V303.88H141.985ZM145.211 303.88V305.849H136.474V303.88H145.211ZM35.0449 331.261V333.142H30.9229V331.261H35.0449ZM47.4101 324.845V337.677H45.1513V327.64L42.6552 328.633V326.717L47.1464 324.845H47.4101ZM59.0155 330.18V332.342C59.0155 333.32 58.9276 334.158 58.7518 334.855C58.5761 335.553 58.327 336.124 58.0048 336.569C57.6884 337.009 57.3075 337.334 56.8622 337.545C56.4169 337.75 55.9247 337.853 55.3856 337.853C54.9579 337.853 54.5565 337.788 54.1815 337.659C53.8065 337.524 53.4667 337.319 53.162 337.044C52.8632 336.763 52.6054 336.405 52.3886 335.972C52.1776 335.538 52.0136 335.022 51.8964 334.425C51.785 333.821 51.7294 333.127 51.7294 332.342V330.18C51.7294 329.195 51.8173 328.357 51.993 327.666C52.1747 326.975 52.4266 326.409 52.7489 325.97C53.0712 325.53 53.455 325.211 53.9003 325.012C54.3456 324.807 54.8378 324.704 55.3768 324.704C55.8046 324.704 56.2059 324.769 56.5809 324.897C56.9559 325.026 57.2899 325.229 57.5829 325.504C57.8817 325.773 58.1395 326.125 58.3563 326.559C58.5731 326.986 58.7372 327.502 58.8485 328.105C58.9598 328.703 59.0155 329.395 59.0155 330.18ZM56.7655 332.658V329.837C56.7655 329.356 56.745 328.935 56.704 328.571C56.663 328.208 56.6044 327.903 56.5282 327.657C56.4579 327.405 56.3641 327.2 56.247 327.042C56.1298 326.884 55.9979 326.77 55.8514 326.699C55.705 326.623 55.5468 326.585 55.3768 326.585C55.16 326.585 54.9667 326.644 54.7968 326.761C54.6268 326.872 54.4804 327.057 54.3573 327.314C54.2343 327.566 54.1405 327.9 54.0761 328.316C54.0116 328.732 53.9794 329.239 53.9794 329.837V332.658C53.9794 333.145 53.9999 333.572 54.0409 333.941C54.0878 334.305 54.1493 334.615 54.2255 334.873C54.3075 335.131 54.4042 335.342 54.5155 335.506C54.6268 335.664 54.7557 335.781 54.9022 335.857C55.0487 335.934 55.2098 335.972 55.3856 335.972C55.6024 335.972 55.7958 335.913 55.9657 335.796C56.1415 335.673 56.288 335.482 56.4052 335.225C56.5223 334.967 56.6102 334.627 56.6688 334.205C56.7333 333.777 56.7655 333.262 56.7655 332.658ZM61.3221 328.018V327.341C61.3221 326.854 61.41 326.412 61.5858 326.014C61.7674 325.615 62.034 325.296 62.3856 325.056C62.7371 324.815 63.1649 324.695 63.6688 324.695C64.1903 324.695 64.6268 324.815 64.9784 325.056C65.3358 325.296 65.5995 325.615 65.7694 326.014C65.9452 326.412 66.033 326.854 66.033 327.341V328.018C66.033 328.492 65.9452 328.929 65.7694 329.327C65.5936 329.726 65.3299 330.045 64.9784 330.285C64.6327 330.525 64.2049 330.646 63.6952 330.646C63.1795 330.646 62.743 330.525 62.3856 330.285C62.034 330.045 61.7674 329.726 61.5858 329.327C61.41 328.929 61.3221 328.492 61.3221 328.018ZM62.825 327.341V328.018C62.825 328.234 62.8573 328.439 62.9217 328.633C62.9862 328.826 63.0799 328.981 63.203 329.099C63.3319 329.216 63.493 329.274 63.6864 329.274C63.8797 329.274 64.0379 329.216 64.161 329.099C64.284 328.976 64.3748 328.82 64.4334 328.633C64.4979 328.439 64.5301 328.234 64.5301 328.018V327.341C64.5301 327.118 64.4979 326.91 64.4334 326.717C64.369 326.523 64.2752 326.368 64.1522 326.251C64.0291 326.128 63.868 326.066 63.6688 326.066C63.4813 326.066 63.3231 326.128 63.1942 326.251C63.0711 326.368 62.9774 326.523 62.9129 326.717C62.8543 326.91 62.825 327.118 62.825 327.341ZM66.4022 335.216V334.539C66.4022 334.059 66.493 333.619 66.6746 333.221C66.8563 332.822 67.1229 332.503 67.4745 332.263C67.826 332.022 68.2567 331.902 68.7664 331.902C69.2821 331.902 69.7127 332.022 70.0584 332.263C70.41 332.503 70.6737 332.822 70.8495 333.221C71.0311 333.619 71.1219 334.059 71.1219 334.539V335.216C71.1219 335.696 71.0311 336.136 70.8495 336.534C70.6737 336.933 70.4129 337.252 70.0672 337.492C69.7215 337.732 69.2909 337.853 68.7752 337.853C68.2596 337.853 67.8231 337.732 67.4657 337.492C67.1141 337.252 66.8475 336.933 66.6659 336.534C66.4901 336.136 66.4022 335.696 66.4022 335.216ZM67.9051 334.539V335.216C67.9051 335.438 67.9403 335.646 68.0106 335.84C68.0868 336.027 68.1893 336.183 68.3182 336.306C68.4471 336.423 68.5995 336.481 68.7752 336.481C68.992 336.481 69.162 336.423 69.285 336.306C69.408 336.183 69.493 336.027 69.5399 335.84C69.5868 335.646 69.6102 335.438 69.6102 335.216V334.548C69.6102 334.319 69.578 334.108 69.5135 333.915C69.4549 333.722 69.3612 333.566 69.2323 333.449C69.1092 333.332 68.9539 333.273 68.7664 333.273C68.5731 333.273 68.412 333.332 68.283 333.449C68.16 333.566 68.0662 333.722 68.0018 333.915C67.9373 334.108 67.9051 334.316 67.9051 334.539ZM69.3553 326.717L64.1082 336.719L63.0096 336.068L68.2567 326.066L69.3553 326.717Z" fill="white"/>
</svg>
