<svg width="867" height="484" viewBox="0 0 867 484" fill="none" xmlns="http://www.w3.org/2000/svg">
<g filter="url(#filter0_d_229_56)">
<rect x="332.693" y="150.693" width="151.052" height="60.9752" stroke="white" stroke-width="1.3858" shape-rendering="crispEdges"/>
</g>
<path d="M365.294 183.861C365.294 183.57 365.264 183.313 365.203 183.09C365.149 182.86 365.041 182.65 364.878 182.461C364.716 182.271 364.482 182.085 364.178 181.903C363.873 181.713 363.481 181.52 363 181.324C362.432 181.094 361.894 180.85 361.387 180.593C360.879 180.329 360.426 180.025 360.026 179.68C359.627 179.335 359.313 178.929 359.083 178.462C358.859 177.995 358.748 177.45 358.748 176.828C358.748 176.219 358.856 175.664 359.072 175.163C359.296 174.655 359.61 174.222 360.016 173.864C360.422 173.498 360.903 173.218 361.458 173.021C362.019 172.825 362.638 172.727 363.315 172.727C364.269 172.727 365.088 172.927 365.771 173.326C366.455 173.725 366.983 174.266 367.355 174.95C367.727 175.633 367.913 176.405 367.913 177.264H365.203C365.203 176.817 365.135 176.422 365 176.076C364.871 175.725 364.665 175.451 364.381 175.254C364.097 175.058 363.731 174.96 363.285 174.96C362.865 174.96 362.52 175.045 362.249 175.214C361.979 175.376 361.779 175.599 361.65 175.884C361.522 176.161 361.458 176.479 361.458 176.838C361.458 177.095 361.515 177.328 361.63 177.538C361.752 177.741 361.918 177.927 362.127 178.096C362.337 178.265 362.591 178.428 362.889 178.583C363.193 178.732 363.532 178.878 363.904 179.02C364.587 179.277 365.186 179.561 365.7 179.873C366.215 180.177 366.641 180.522 366.979 180.908C367.324 181.287 367.581 181.716 367.751 182.197C367.92 182.677 368.004 183.225 368.004 183.841C368.004 184.45 367.899 185.005 367.69 185.506C367.48 186.006 367.175 186.436 366.776 186.795C366.377 187.153 365.893 187.431 365.325 187.627C364.763 187.817 364.137 187.911 363.447 187.911C362.784 187.911 362.151 187.817 361.549 187.627C360.953 187.431 360.426 187.136 359.966 186.744C359.505 186.352 359.143 185.858 358.88 185.262C358.616 184.66 358.484 183.953 358.484 183.141H361.194C361.194 183.594 361.244 183.987 361.346 184.318C361.447 184.643 361.6 184.907 361.803 185.11C362.006 185.306 362.249 185.452 362.533 185.546C362.818 185.634 363.139 185.678 363.498 185.678C363.924 185.678 364.269 185.6 364.533 185.445C364.797 185.289 364.99 185.076 365.112 184.805C365.233 184.528 365.294 184.213 365.294 183.861ZM373.825 184.978L376.179 172.93H377.692L377.905 175.356L375.347 187.708H373.733L373.825 184.978ZM372.668 172.93L374.555 184.958L374.434 187.708H372.688L369.968 172.93H372.668ZM380.067 184.907L381.945 172.93H384.634L381.924 187.708H380.178L380.067 184.907ZM378.443 172.93L380.808 185.029L380.859 187.708H379.255L376.738 175.336L376.951 172.93H378.443ZM389.836 172.93V187.708H387.136V172.93H389.836ZM393.169 172.93H397.767C398.748 172.93 399.584 173.099 400.274 173.437C400.964 173.776 401.489 174.277 401.847 174.94C402.213 175.603 402.395 176.418 402.395 177.386C402.395 178.157 402.284 178.827 402.06 179.395C401.844 179.957 401.533 180.427 401.127 180.806C400.727 181.185 400.244 181.48 399.675 181.689L398.853 182.156H395.047L395.037 179.893H397.706C398.146 179.893 398.511 179.795 398.802 179.598C399.1 179.402 399.32 179.132 399.462 178.786C399.611 178.435 399.685 178.032 399.685 177.579C399.685 177.085 399.618 176.662 399.482 176.31C399.354 175.951 399.147 175.677 398.863 175.488C398.586 175.298 398.22 175.204 397.767 175.204H395.889V187.708H393.169V172.93ZM399.97 187.708L397.199 181.091H400.051L402.872 187.566V187.708H399.97ZM413.27 185.445V187.708H407.13V185.445H413.27ZM407.911 172.93V187.708H405.191V172.93H407.911Z" fill="white"/>
<path d="M415.782 186.368C415.782 185.942 415.917 185.59 416.188 185.313C416.465 185.029 416.844 184.887 417.325 184.887C417.805 184.887 418.181 185.029 418.451 185.313C418.729 185.59 418.867 185.942 418.867 186.368C418.867 186.781 418.729 187.126 418.451 187.404C418.181 187.681 417.805 187.82 417.325 187.82C416.844 187.82 416.465 187.681 416.188 187.404C415.917 187.126 415.782 186.781 415.782 186.368ZM427.52 175.264L424.14 187.708H421.277L425.936 172.93H427.723L427.52 175.264ZM430.189 187.708L426.809 175.264L426.576 172.93H428.382L433.061 187.708H430.189ZM430.28 182.207V184.47H423.5V182.207H430.28ZM435.248 172.93H439.846C440.827 172.93 441.663 173.099 442.353 173.437C443.043 173.776 443.568 174.277 443.926 174.94C444.292 175.603 444.474 176.418 444.474 177.386C444.474 178.157 444.363 178.827 444.139 179.395C443.923 179.957 443.612 180.427 443.206 180.806C442.806 181.185 442.323 181.48 441.754 181.689L440.932 182.156H437.126L437.116 179.893H439.785C440.225 179.893 440.59 179.795 440.881 179.598C441.179 179.402 441.399 179.132 441.541 178.786C441.69 178.435 441.764 178.032 441.764 177.579C441.764 177.085 441.697 176.662 441.561 176.31C441.433 175.951 441.226 175.677 440.942 175.488C440.665 175.298 440.299 175.204 439.846 175.204H437.968V187.708H435.248V172.93ZM442.049 187.708L439.278 181.091H442.13L444.951 187.566V187.708H442.049ZM452.142 181.151H449.117L449.107 179.142H451.736C452.142 179.142 452.48 179.067 452.751 178.918C453.029 178.763 453.235 178.54 453.37 178.249C453.512 177.958 453.583 177.602 453.583 177.183C453.583 176.709 453.519 176.33 453.391 176.046C453.269 175.755 453.072 175.542 452.802 175.407C452.531 175.271 452.179 175.204 451.746 175.204H449.99V187.708H447.27V172.93H451.746C452.463 172.93 453.103 173.011 453.665 173.174C454.226 173.329 454.703 173.573 455.096 173.904C455.488 174.236 455.786 174.655 455.989 175.163C456.199 175.664 456.304 176.259 456.304 176.949C456.304 177.558 456.178 178.117 455.928 178.624C455.678 179.132 455.299 179.548 454.791 179.873C454.284 180.197 453.634 180.383 452.842 180.431L452.142 181.151ZM452.041 187.708H448.295L449.452 185.445H452.041C452.46 185.445 452.798 185.357 453.056 185.181C453.319 185.005 453.516 184.761 453.644 184.45C453.773 184.132 453.837 183.767 453.837 183.354C453.837 182.907 453.78 182.518 453.665 182.187C453.556 181.855 453.377 181.601 453.127 181.425C452.883 181.243 452.555 181.151 452.142 181.151H449.625L449.645 179.142H452.782L453.421 179.923C454.165 179.917 454.768 180.079 455.228 180.41C455.688 180.742 456.023 181.172 456.232 181.7C456.442 182.221 456.547 182.782 456.547 183.384C456.547 184.325 456.371 185.117 456.019 185.759C455.667 186.402 455.157 186.89 454.487 187.221C453.817 187.546 453.001 187.708 452.041 187.708Z" fill="#C91DF4"/>
<g filter="url(#filter1_d_229_56)">
<rect x="680.478" y="427.478" width="170.044" height="42.0444" stroke="white" stroke-width="0.955556" shape-rendering="crispEdges"/>
</g>
<path d="M702.671 449.541H704.539C704.507 450.292 704.353 450.929 704.077 451.451C703.807 451.969 703.417 452.363 702.909 452.634C702.405 452.905 701.791 453.04 701.068 453.04C700.517 453.04 700.025 452.944 699.591 452.753C699.157 452.557 698.789 452.275 698.485 451.906C698.187 451.538 697.958 451.085 697.8 450.548C697.646 450.007 697.569 449.389 697.569 448.694V446.923C697.569 446.228 697.65 445.61 697.814 445.068C697.977 444.527 698.21 444.07 698.513 443.697C698.821 443.323 699.195 443.041 699.633 442.85C700.072 442.659 700.566 442.563 701.117 442.563C701.845 442.563 702.454 442.701 702.944 442.976C703.434 443.251 703.811 443.655 704.077 444.187C704.343 444.714 704.5 445.358 704.546 446.118H702.678C702.659 445.624 702.598 445.232 702.496 444.942C702.393 444.648 702.232 444.439 702.013 444.313C701.794 444.187 701.495 444.124 701.117 444.124C700.823 444.124 700.569 444.177 700.354 444.285C700.139 444.392 699.965 444.56 699.829 444.788C699.694 445.012 699.594 445.299 699.528 445.649C699.463 445.999 699.43 446.419 699.43 446.909V448.694C699.43 449.165 699.458 449.576 699.514 449.926C699.57 450.275 699.659 450.567 699.78 450.8C699.906 451.029 700.074 451.202 700.284 451.318C700.494 451.43 700.755 451.486 701.068 451.486C701.446 451.486 701.747 451.43 701.971 451.318C702.195 451.202 702.36 451.003 702.468 450.723C702.58 450.439 702.647 450.044 702.671 449.541ZM706.355 442.71H709.525C710.202 442.71 710.778 442.827 711.254 443.06C711.73 443.293 712.092 443.638 712.339 444.096C712.591 444.553 712.717 445.115 712.717 445.782C712.717 446.314 712.64 446.776 712.486 447.168C712.337 447.555 712.122 447.88 711.842 448.141C711.567 448.402 711.233 448.605 710.841 448.75L710.274 449.072H707.65L707.643 447.511H709.483C709.787 447.511 710.039 447.443 710.239 447.308C710.445 447.173 710.596 446.986 710.694 446.748C710.797 446.505 710.848 446.228 710.848 445.915C710.848 445.575 710.802 445.283 710.708 445.04C710.62 444.793 710.477 444.604 710.281 444.474C710.09 444.343 709.838 444.278 709.525 444.278H708.231V452.9H706.355V442.71ZM711.044 452.9L709.134 448.337H711.1L713.046 452.802V452.9H711.044ZM721.678 446.993V448.708C721.678 449.426 721.594 450.056 721.426 450.597C721.258 451.139 721.016 451.591 720.698 451.955C720.381 452.314 720.001 452.585 719.558 452.767C719.114 452.949 718.625 453.04 718.088 453.04C717.547 453.04 717.054 452.949 716.611 452.767C716.168 452.585 715.785 452.314 715.463 451.955C715.146 451.591 714.899 451.139 714.722 450.597C714.549 450.056 714.463 449.426 714.463 448.708V446.993C714.463 446.261 714.549 445.619 714.722 445.068C714.894 444.518 715.139 444.058 715.456 443.69C715.778 443.321 716.161 443.043 716.604 442.857C717.047 442.666 717.537 442.57 718.074 442.57C718.615 442.57 719.105 442.666 719.544 442.857C719.987 443.043 720.367 443.321 720.684 443.69C721.006 444.058 721.251 444.518 721.419 445.068C721.592 445.619 721.678 446.261 721.678 446.993ZM719.817 448.708V446.979C719.817 446.48 719.779 446.051 719.705 445.691C719.63 445.332 719.518 445.04 719.369 444.816C719.219 444.588 719.035 444.42 718.816 444.313C718.601 444.205 718.354 444.152 718.074 444.152C717.789 444.152 717.537 444.205 717.318 444.313C717.103 444.42 716.922 444.588 716.772 444.816C716.628 445.04 716.518 445.332 716.443 445.691C716.369 446.051 716.331 446.48 716.331 446.979V448.708C716.331 449.198 716.369 449.618 716.443 449.968C716.518 450.317 716.63 450.602 716.779 450.821C716.933 451.041 717.117 451.204 717.332 451.311C717.551 451.414 717.803 451.465 718.088 451.465C718.368 451.465 718.615 451.414 718.83 451.311C719.049 451.204 719.231 451.041 719.376 450.821C719.525 450.602 719.635 450.317 719.705 449.968C719.779 449.618 719.817 449.198 719.817 448.708ZM725.853 451.017L727.476 442.71H728.519L728.666 444.383L726.902 452.9H725.79L725.853 451.017ZM725.055 442.71L726.357 451.003L726.273 452.9H725.069L723.193 442.71H725.055ZM730.157 450.968L731.452 442.71H733.306L731.438 452.9H730.234L730.157 450.968ZM729.037 442.71L730.668 451.052L730.703 452.9H729.597L727.861 444.369L728.008 442.71H729.037ZM737.53 452.9H735.745L735.759 451.339H737.53C738.047 451.339 738.456 451.246 738.754 451.059C739.058 450.868 739.272 450.572 739.398 450.17C739.529 449.769 739.594 449.251 739.594 448.617V446.986C739.594 446.501 739.559 446.088 739.489 445.747C739.419 445.402 739.305 445.122 739.146 444.907C738.988 444.693 738.78 444.534 738.523 444.432C738.267 444.329 737.949 444.278 737.571 444.278H735.71V442.71H737.571C738.159 442.71 738.691 442.806 739.167 442.997C739.643 443.183 740.051 443.459 740.392 443.823C740.737 444.187 741.001 444.637 741.183 445.173C741.365 445.705 741.456 446.314 741.456 447V448.617C741.456 449.303 741.365 449.912 741.183 450.443C741.001 450.975 740.737 451.423 740.392 451.787C740.051 452.151 739.638 452.429 739.153 452.62C738.673 452.807 738.131 452.9 737.53 452.9ZM736.823 442.71V452.9H734.947V442.71H736.823ZM748.409 449.541H750.277C750.245 450.292 750.091 450.929 749.815 451.451C749.545 451.969 749.155 452.363 748.647 452.634C748.143 452.905 747.529 453.04 746.806 453.04C746.255 453.04 745.763 452.944 745.329 452.753C744.895 452.557 744.527 452.275 744.223 451.906C743.925 451.538 743.696 451.085 743.537 450.548C743.383 450.007 743.307 449.389 743.307 448.694V446.923C743.307 446.228 743.388 445.61 743.551 445.068C743.715 444.527 743.948 444.07 744.251 443.697C744.559 443.323 744.933 443.041 745.371 442.85C745.81 442.659 746.304 442.563 746.855 442.563C747.583 442.563 748.192 442.701 748.682 442.976C749.171 443.251 749.549 443.655 749.815 444.187C750.081 444.714 750.238 445.358 750.284 446.118H748.416C748.397 445.624 748.336 445.232 748.234 444.942C748.131 444.648 747.97 444.439 747.751 444.313C747.531 444.187 747.233 444.124 746.855 444.124C746.561 444.124 746.307 444.177 746.092 444.285C745.877 444.392 745.702 444.56 745.567 444.788C745.432 445.012 745.331 445.299 745.266 445.649C745.201 445.999 745.168 446.419 745.168 446.909V448.694C745.168 449.165 745.196 449.576 745.252 449.926C745.308 450.275 745.397 450.567 745.518 450.8C745.644 451.029 745.812 451.202 746.022 451.318C746.232 451.43 746.493 451.486 746.806 451.486C747.184 451.486 747.485 451.43 747.709 451.318C747.933 451.202 748.098 451.003 748.206 450.723C748.318 450.439 748.385 450.044 748.409 449.541ZM759.12 446.993V448.708C759.12 449.426 759.036 450.056 758.868 450.597C758.7 451.139 758.457 451.591 758.14 451.955C757.823 452.314 757.442 452.585 756.999 452.767C756.556 452.949 756.066 453.04 755.529 453.04C754.988 453.04 754.496 452.949 754.053 452.767C753.609 452.585 753.227 452.314 752.905 451.955C752.588 451.591 752.34 451.139 752.163 450.597C751.99 450.056 751.904 449.426 751.904 448.708V446.993C751.904 446.261 751.99 445.619 752.163 445.068C752.336 444.518 752.581 444.058 752.898 443.69C753.22 443.321 753.602 443.043 754.046 442.857C754.489 442.666 754.979 442.57 755.515 442.57C756.057 442.57 756.546 442.666 756.985 442.857C757.428 443.043 757.809 443.321 758.126 443.69C758.448 444.058 758.693 444.518 758.861 445.068C759.033 445.619 759.12 446.261 759.12 446.993ZM757.258 448.708V446.979C757.258 446.48 757.221 446.051 757.146 445.691C757.071 445.332 756.959 445.04 756.81 444.816C756.661 444.588 756.476 444.42 756.257 444.313C756.043 444.205 755.795 444.152 755.515 444.152C755.231 444.152 754.979 444.205 754.759 444.313C754.545 444.42 754.363 444.588 754.214 444.816C754.069 445.04 753.959 445.332 753.885 445.691C753.81 446.051 753.773 446.48 753.773 446.979V448.708C753.773 449.198 753.81 449.618 753.885 449.968C753.959 450.317 754.071 450.602 754.221 450.821C754.375 451.041 754.559 451.204 754.773 451.311C754.993 451.414 755.245 451.465 755.529 451.465C755.809 451.465 756.057 451.414 756.271 451.311C756.49 451.204 756.672 451.041 756.817 450.821C756.966 450.602 757.076 450.317 757.146 449.968C757.221 449.618 757.258 449.198 757.258 448.708ZM768.186 442.71V452.9H766.359L762.958 446.188V452.9H761.166V442.71H762.965L766.394 449.485V442.71H768.186ZM777.42 442.71V452.9H775.594L772.192 446.188V452.9H770.401V442.71H772.199L775.629 449.485V442.71H777.42ZM785.395 451.339V452.9H780.972V451.339H785.395ZM781.511 442.71V452.9H779.635V442.71H781.511ZM784.8 446.895V448.414H780.972V446.895H784.8ZM785.367 442.71V444.278H780.972V442.71H785.367ZM792.033 449.541H793.901C793.869 450.292 793.715 450.929 793.44 451.451C793.169 451.969 792.779 452.363 792.271 452.634C791.767 452.905 791.153 453.04 790.43 453.04C789.88 453.04 789.387 452.944 788.953 452.753C788.52 452.557 788.151 452.275 787.848 451.906C787.549 451.538 787.32 451.085 787.162 450.548C787.008 450.007 786.931 449.389 786.931 448.694V446.923C786.931 446.228 787.012 445.61 787.176 445.068C787.339 444.527 787.572 444.07 787.876 443.697C788.184 443.323 788.557 443.041 788.995 442.85C789.434 442.659 789.929 442.563 790.479 442.563C791.207 442.563 791.816 442.701 792.306 442.976C792.796 443.251 793.174 443.655 793.44 444.187C793.706 444.714 793.862 445.358 793.908 446.118H792.04C792.021 445.624 791.961 445.232 791.858 444.942C791.755 444.648 791.594 444.439 791.375 444.313C791.156 444.187 790.857 444.124 790.479 444.124C790.185 444.124 789.931 444.177 789.716 444.285C789.502 444.392 789.327 444.56 789.191 444.788C789.056 445.012 788.956 445.299 788.89 445.649C788.825 445.999 788.792 446.419 788.792 446.909V448.694C788.792 449.165 788.82 449.576 788.876 449.926C788.932 450.275 789.021 450.567 789.142 450.8C789.268 451.029 789.436 451.202 789.646 451.318C789.856 451.43 790.118 451.486 790.43 451.486C790.808 451.486 791.109 451.43 791.333 451.318C791.557 451.202 791.723 451.003 791.83 450.723C791.942 450.439 792.01 450.044 792.033 449.541ZM799.378 442.71V452.9H797.516V442.71H799.378ZM801.946 442.71V444.278H794.989V442.71H801.946Z" fill="white"/>
<path d="M803.671 451.976C803.671 451.682 803.764 451.44 803.951 451.248C804.142 451.052 804.403 450.954 804.735 450.954C805.066 450.954 805.325 451.052 805.511 451.248C805.703 451.44 805.798 451.682 805.798 451.976C805.798 452.261 805.703 452.499 805.511 452.69C805.325 452.881 805.066 452.977 804.735 452.977C804.403 452.977 804.142 452.881 803.951 452.69C803.764 452.499 803.671 452.261 803.671 451.976ZM811.764 444.32L809.434 452.9H807.46L810.673 442.71H811.904L811.764 444.32ZM813.605 452.9L811.275 444.32L811.114 442.71H812.359L815.586 452.9H813.605ZM813.668 449.107V450.667H808.993V449.107H813.668ZM817.094 442.71H820.264C820.94 442.71 821.517 442.827 821.993 443.06C822.469 443.293 822.83 443.638 823.077 444.096C823.329 444.553 823.455 445.115 823.455 445.782C823.455 446.314 823.378 446.776 823.224 447.168C823.075 447.555 822.86 447.88 822.58 448.141C822.305 448.402 821.972 448.605 821.58 448.75L821.013 449.072H818.388L818.381 447.511H820.222C820.525 447.511 820.777 447.443 820.978 447.308C821.183 447.173 821.335 446.986 821.433 446.748C821.535 446.505 821.587 446.228 821.587 445.915C821.587 445.575 821.54 445.283 821.447 445.04C821.358 444.793 821.216 444.604 821.02 444.474C820.828 444.343 820.577 444.278 820.264 444.278H818.969V452.9H817.094V442.71ZM821.783 452.9L819.872 448.337H821.839L823.784 452.802V452.9H821.783ZM828.742 448.379H826.657L826.65 446.993H828.462C828.742 446.993 828.976 446.942 829.162 446.839C829.354 446.732 829.496 446.578 829.589 446.377C829.687 446.177 829.736 445.932 829.736 445.642C829.736 445.316 829.692 445.054 829.603 444.858C829.519 444.658 829.384 444.511 829.197 444.418C829.011 444.324 828.768 444.278 828.469 444.278H827.259V452.9H825.383V442.71H828.469C828.964 442.71 829.405 442.766 829.792 442.878C830.179 442.985 830.508 443.153 830.779 443.382C831.05 443.61 831.255 443.9 831.395 444.25C831.54 444.595 831.612 445.005 831.612 445.481C831.612 445.901 831.526 446.286 831.353 446.636C831.18 446.986 830.919 447.273 830.569 447.497C830.219 447.721 829.771 447.849 829.225 447.882L828.742 448.379ZM828.672 452.9H826.09L826.888 451.339H828.672C828.962 451.339 829.195 451.279 829.372 451.157C829.554 451.036 829.69 450.868 829.778 450.653C829.867 450.434 829.911 450.182 829.911 449.898C829.911 449.59 829.872 449.321 829.792 449.093C829.718 448.864 829.594 448.689 829.421 448.568C829.253 448.442 829.027 448.379 828.742 448.379H827.007L827.021 446.993H829.183L829.624 447.532C830.137 447.527 830.553 447.639 830.87 447.868C831.187 448.097 831.418 448.393 831.563 448.757C831.708 449.116 831.78 449.503 831.78 449.919C831.78 450.567 831.659 451.113 831.416 451.556C831.173 451.999 830.821 452.335 830.359 452.564C829.897 452.788 829.335 452.9 828.672 452.9Z" fill="#C91DF4"/>
<g filter="url(#filter2_d_229_56)">
<rect x="156.478" y="125.478" width="104.156" height="42.0444" stroke="white" stroke-width="0.955556" shape-rendering="crispEdges"/>
</g>
<path d="M178.981 148.247C178.981 148.047 178.96 147.87 178.918 147.716C178.881 147.557 178.806 147.412 178.694 147.282C178.582 147.151 178.421 147.023 178.211 146.897C178.001 146.766 177.73 146.633 177.399 146.498C177.007 146.339 176.636 146.171 176.286 145.994C175.936 145.812 175.624 145.602 175.349 145.364C175.073 145.126 174.856 144.846 174.698 144.524C174.544 144.202 174.467 143.827 174.467 143.397C174.467 142.977 174.541 142.595 174.691 142.25C174.845 141.9 175.062 141.601 175.342 141.354C175.621 141.102 175.953 140.908 176.335 140.773C176.723 140.638 177.15 140.57 177.616 140.57C178.274 140.57 178.839 140.708 179.31 140.983C179.781 141.258 180.145 141.631 180.402 142.103C180.658 142.574 180.787 143.106 180.787 143.698H178.918C178.918 143.39 178.871 143.117 178.778 142.879C178.689 142.637 178.547 142.448 178.351 142.313C178.155 142.177 177.903 142.11 177.595 142.11C177.306 142.11 177.068 142.168 176.881 142.285C176.695 142.397 176.557 142.551 176.468 142.746C176.38 142.938 176.335 143.157 176.335 143.404C176.335 143.582 176.375 143.743 176.454 143.887C176.538 144.027 176.653 144.156 176.797 144.272C176.942 144.389 177.117 144.501 177.322 144.608C177.532 144.711 177.765 144.811 178.022 144.909C178.493 145.086 178.906 145.282 179.261 145.497C179.615 145.707 179.909 145.945 180.143 146.211C180.381 146.472 180.558 146.768 180.675 147.1C180.791 147.431 180.85 147.809 180.85 148.233C180.85 148.653 180.777 149.036 180.633 149.381C180.488 149.727 180.278 150.023 180.003 150.27C179.727 150.517 179.394 150.709 179.002 150.844C178.615 150.975 178.183 151.04 177.707 151.04C177.25 151.04 176.814 150.975 176.398 150.844C175.988 150.709 175.624 150.506 175.307 150.235C174.989 149.964 174.74 149.624 174.558 149.213C174.376 148.798 174.285 148.31 174.285 147.751H176.153C176.153 148.063 176.188 148.334 176.258 148.562C176.328 148.786 176.433 148.968 176.573 149.108C176.713 149.244 176.881 149.344 177.077 149.409C177.273 149.47 177.495 149.5 177.742 149.5C178.036 149.5 178.274 149.447 178.456 149.339C178.638 149.232 178.771 149.085 178.855 148.898C178.939 148.707 178.981 148.49 178.981 148.247ZM184.863 149.017L186.487 140.71H187.529L187.676 142.383L185.913 150.9H184.8L184.863 149.017ZM184.065 140.71L185.367 149.003L185.283 150.9H184.079L182.203 140.71H184.065ZM189.167 148.968L190.462 140.71H192.316L190.448 150.9H189.244L189.167 148.968ZM188.047 140.71L189.678 149.052L189.713 150.9H188.607L186.871 142.369L187.018 140.71H188.047ZM195.903 140.71V150.9H194.041V140.71H195.903ZM198.202 140.71H201.372C202.048 140.71 202.625 140.827 203.101 141.06C203.577 141.293 203.938 141.638 204.185 142.096C204.437 142.553 204.563 143.115 204.563 143.782C204.563 144.314 204.486 144.776 204.332 145.168C204.183 145.555 203.968 145.88 203.688 146.141C203.413 146.402 203.08 146.605 202.688 146.75L202.121 147.072H199.496L199.489 145.511H201.33C201.633 145.511 201.885 145.443 202.086 145.308C202.291 145.173 202.443 144.986 202.541 144.748C202.643 144.505 202.695 144.228 202.695 143.915C202.695 143.575 202.648 143.283 202.555 143.04C202.466 142.793 202.324 142.604 202.128 142.474C201.936 142.343 201.685 142.278 201.372 142.278H200.077V150.9H198.202V140.71ZM202.891 150.9L200.98 146.337H202.947L204.892 150.802V150.9H202.891ZM212.062 149.339V150.9H207.828V149.339H212.062ZM208.367 140.71V150.9H206.491V140.71H208.367Z" fill="white"/>
<path d="M213.794 149.976C213.794 149.682 213.887 149.44 214.074 149.248C214.265 149.052 214.526 148.954 214.858 148.954C215.189 148.954 215.448 149.052 215.634 149.248C215.826 149.44 215.921 149.682 215.921 149.976C215.921 150.261 215.826 150.499 215.634 150.69C215.448 150.881 215.189 150.977 214.858 150.977C214.526 150.977 214.265 150.881 214.074 150.69C213.887 150.499 213.794 150.261 213.794 149.976ZM221.887 142.32L219.557 150.9H217.583L220.796 140.71H222.027L221.887 142.32ZM223.728 150.9L221.397 142.32L221.236 140.71H222.482L225.709 150.9H223.728ZM223.791 147.107V148.667H219.116V147.107H223.791ZM227.216 140.71H230.387C231.063 140.71 231.64 140.827 232.116 141.06C232.591 141.293 232.953 141.638 233.2 142.096C233.452 142.553 233.578 143.115 233.578 143.782C233.578 144.314 233.501 144.776 233.347 145.168C233.198 145.555 232.983 145.88 232.703 146.141C232.428 146.402 232.095 146.605 231.703 146.75L231.136 147.072H228.511L228.504 145.511H230.345C230.648 145.511 230.9 145.443 231.101 145.308C231.306 145.173 231.458 144.986 231.556 144.748C231.658 144.505 231.71 144.228 231.71 143.915C231.71 143.575 231.663 143.283 231.57 143.04C231.481 142.793 231.339 142.604 231.143 142.474C230.951 142.343 230.699 142.278 230.387 142.278H229.092V150.9H227.216V140.71ZM231.906 150.9L229.995 146.337H231.962L233.907 150.802V150.9H231.906ZM238.865 146.379H236.78L236.773 144.993H238.585C238.865 144.993 239.099 144.942 239.285 144.839C239.477 144.732 239.619 144.578 239.712 144.377C239.81 144.177 239.859 143.932 239.859 143.642C239.859 143.316 239.815 143.054 239.726 142.858C239.642 142.658 239.507 142.511 239.32 142.418C239.134 142.324 238.891 142.278 238.592 142.278H237.382V150.9H235.506V140.71H238.592C239.087 140.71 239.528 140.766 239.915 140.878C240.302 140.985 240.631 141.153 240.902 141.382C241.173 141.61 241.378 141.9 241.518 142.25C241.662 142.595 241.735 143.005 241.735 143.481C241.735 143.901 241.648 144.286 241.476 144.636C241.303 144.986 241.042 145.273 240.692 145.497C240.342 145.721 239.894 145.849 239.348 145.882L238.865 146.379ZM238.795 150.9H236.213L237.011 149.339H238.795C239.085 149.339 239.318 149.279 239.495 149.157C239.677 149.036 239.813 148.868 239.901 148.653C239.99 148.434 240.034 148.182 240.034 147.898C240.034 147.59 239.994 147.321 239.915 147.093C239.84 146.864 239.717 146.689 239.544 146.568C239.376 146.442 239.15 146.379 238.865 146.379H237.13L237.144 144.993H239.306L239.747 145.532C240.26 145.527 240.676 145.639 240.993 145.868C241.31 146.097 241.541 146.393 241.686 146.757C241.83 147.116 241.903 147.503 241.903 147.919C241.903 148.567 241.781 149.113 241.539 149.556C241.296 149.999 240.944 150.335 240.482 150.564C240.02 150.788 239.458 150.9 238.795 150.9Z" fill="#C91DF4"/>
<g filter="url(#filter3_d_229_56)">
<rect x="110.622" y="40.6222" width="164.151" height="54.7556" stroke="white" stroke-width="1.24444" shape-rendering="crispEdges"/>
</g>
<path d="M140.352 71.7673V73.7999H134.838V71.7673H140.352ZM135.539 60.529V73.7999H133.097V60.529H135.539ZM145.105 60.529V73.7999H142.68V60.529H145.105ZM157.231 60.529V73.7999H154.852L150.422 65.059V73.7999H148.089V60.529H150.432L154.898 69.352V60.529H157.231ZM162.558 60.529V73.7999H160.115V60.529H162.558ZM169.166 60.529L164.8 67.0277L162.157 70.2999L161.701 67.8025L163.46 65.0225L166.204 60.529H169.166ZM166.404 73.7999L163.278 67.6202L165.019 65.9613L169.294 73.7999H166.404ZM178.23 71.7673V73.7999H172.716V71.7673H178.23ZM173.417 60.529V73.7999H170.975V60.529H173.417ZM187.95 71.7673V73.7999H182.19V71.7673H187.95ZM182.892 60.529V73.7999H180.449V60.529H182.892ZM187.175 65.9796V67.9574H182.19V65.9796H187.175ZM187.914 60.529V62.5707H182.19V60.529H187.914ZM194.89 62.6254L191.855 73.7999H189.285L193.468 60.529H195.073L194.89 62.6254ZM197.287 73.7999L194.252 62.6254L194.043 60.529H195.665L199.867 73.7999H197.287ZM197.37 68.8598V70.8923H191.281V68.8598H197.37ZM206.278 69.0056H203.517V66.9639H206.269C206.695 66.9639 207.035 66.8758 207.29 66.6996C207.551 66.5173 207.74 66.2652 207.855 65.9431C207.977 65.6211 208.038 65.2565 208.038 64.8494C208.038 64.4544 207.977 64.0837 207.855 63.7374C207.74 63.3849 207.551 63.1024 207.29 62.8897C207.035 62.677 206.698 62.5707 206.278 62.5707H204.255V73.7999H201.821V60.529H206.278C207.16 60.529 207.916 60.7144 208.548 61.085C209.18 61.4557 209.663 61.9661 209.997 62.6163C210.338 63.2604 210.508 63.9987 210.508 64.8311C210.508 65.6879 210.338 66.4292 209.997 67.0551C209.657 67.6749 209.171 68.1549 208.539 68.4952C207.913 68.8355 207.16 69.0056 206.278 69.0056Z" fill="white"/>
<path d="M212.973 72.5967C212.973 72.2139 213.094 71.898 213.337 71.6488C213.586 71.3936 213.927 71.266 214.358 71.266C214.789 71.266 215.127 71.3936 215.37 71.6488C215.619 71.898 215.743 72.2139 215.743 72.5967C215.743 72.9674 215.619 73.2773 215.37 73.5264C215.127 73.7756 214.789 73.9001 214.358 73.9001C213.927 73.9001 213.586 73.7756 213.337 73.5264C213.094 73.2773 212.973 72.9674 212.973 72.5967ZM223.513 62.6254L220.478 73.7999H217.908L222.091 60.529H223.695L223.513 62.6254ZM225.91 73.7999L222.875 62.6254L222.665 60.529H224.288L228.49 73.7999H225.91ZM225.992 68.8598V70.8923H219.904V68.8598H225.992ZM230.453 60.529H234.582C235.463 60.529 236.214 60.681 236.833 60.9848C237.453 61.2886 237.924 61.7382 238.246 62.3337C238.574 62.9292 238.738 63.6614 238.738 64.5303C238.738 65.2231 238.638 65.8246 238.438 66.335C238.243 66.8394 237.964 67.2617 237.599 67.602C237.241 67.9422 236.806 68.2066 236.296 68.3949L235.557 68.8142H232.139L232.13 66.7816H234.527C234.922 66.7816 235.251 66.6935 235.512 66.5173C235.779 66.3411 235.977 66.0981 236.104 65.7882C236.238 65.4722 236.305 65.1106 236.305 64.7035C236.305 64.2599 236.244 63.8802 236.123 63.5642C236.007 63.2421 235.822 62.9961 235.567 62.8259C235.317 62.6558 234.989 62.5707 234.582 62.5707H232.896V73.7999H230.453V60.529ZM236.56 73.7999L234.072 67.8572H236.633L239.167 73.6723V73.7999H236.56ZM245.624 67.9119H242.908L242.899 66.1072H245.259C245.624 66.1072 245.928 66.0403 246.171 65.9066C246.42 65.7669 246.605 65.5664 246.727 65.3051C246.854 65.0438 246.918 64.7248 246.918 64.3481C246.918 63.9227 246.86 63.5824 246.745 63.3272C246.636 63.0659 246.459 62.8745 246.216 62.753C245.973 62.6315 245.657 62.5707 245.268 62.5707H243.692V73.7999H241.249V60.529H245.268C245.913 60.529 246.487 60.602 246.991 60.7478C247.495 60.8875 247.924 61.1063 248.276 61.404C248.629 61.7018 248.896 62.0785 249.078 62.5342C249.267 62.9839 249.361 63.5186 249.361 64.1384C249.361 64.6853 249.249 65.1866 249.024 65.6423C248.799 66.0981 248.459 66.4717 248.003 66.7634C247.547 67.0551 246.964 67.2222 246.253 67.2647L245.624 67.9119ZM245.533 73.7999H242.17L243.209 71.7673H245.533C245.91 71.7673 246.213 71.6883 246.444 71.5303C246.681 71.3724 246.857 71.1536 246.973 70.8741C247.088 70.5885 247.146 70.2604 247.146 69.8897C247.146 69.4887 247.094 69.1393 246.991 68.8415C246.894 68.5438 246.733 68.3159 246.508 68.1579C246.289 67.9939 245.995 67.9119 245.624 67.9119H243.364L243.382 66.1072H246.198L246.772 66.809C247.441 66.8029 247.982 66.9487 248.395 67.2465C248.808 67.5442 249.109 67.9301 249.297 68.404C249.485 68.8719 249.58 69.3763 249.58 69.9171C249.58 70.7617 249.422 71.4726 249.106 72.0499C248.79 72.6271 248.331 73.0646 247.729 73.3624C247.128 73.654 246.396 73.7999 245.533 73.7999Z" fill="#C91DF4"/>
<g opacity="0.3">
<rect x="535.831" y="146.831" width="289.113" height="73.1089" stroke="white" stroke-width="1.66157"/>
<path d="M579.959 186.819C579.959 186.47 579.923 186.162 579.85 185.894C579.785 185.618 579.655 185.367 579.46 185.139C579.265 184.912 578.985 184.689 578.62 184.47C578.255 184.243 577.785 184.012 577.209 183.776C576.527 183.5 575.882 183.208 575.274 182.9C574.665 182.584 574.122 182.219 573.643 181.805C573.164 181.391 572.787 180.904 572.511 180.344C572.243 179.785 572.11 179.132 572.11 178.385C572.11 177.655 572.239 176.99 572.499 176.389C572.767 175.781 573.144 175.262 573.631 174.832C574.118 174.394 574.694 174.057 575.359 173.822C576.032 173.586 576.775 173.469 577.586 173.469C578.73 173.469 579.712 173.708 580.531 174.187C581.35 174.665 581.983 175.314 582.43 176.134C582.876 176.953 583.099 177.878 583.099 178.908H579.85C579.85 178.373 579.768 177.898 579.606 177.485C579.452 177.063 579.205 176.734 578.864 176.499C578.523 176.264 578.085 176.146 577.549 176.146C577.046 176.146 576.633 176.247 576.308 176.45C575.984 176.645 575.744 176.913 575.59 177.253C575.436 177.586 575.359 177.967 575.359 178.397C575.359 178.706 575.428 178.986 575.566 179.237C575.712 179.48 575.911 179.704 576.162 179.906C576.414 180.109 576.718 180.304 577.075 180.491C577.44 180.669 577.846 180.843 578.292 181.014C579.111 181.322 579.829 181.663 580.446 182.036C581.062 182.401 581.574 182.815 581.979 183.277C582.393 183.732 582.701 184.247 582.904 184.823C583.107 185.399 583.208 186.056 583.208 186.794C583.208 187.525 583.083 188.19 582.831 188.79C582.58 189.391 582.215 189.906 581.736 190.336C581.257 190.766 580.677 191.098 579.996 191.334C579.322 191.561 578.572 191.674 577.744 191.674C576.949 191.674 576.191 191.561 575.468 191.334C574.755 191.098 574.122 190.745 573.57 190.275C573.018 189.804 572.584 189.212 572.268 188.498C571.951 187.776 571.793 186.928 571.793 185.955H575.043C575.043 186.498 575.103 186.969 575.225 187.366C575.347 187.756 575.529 188.072 575.773 188.316C576.016 188.551 576.308 188.725 576.649 188.839C576.99 188.944 577.375 188.997 577.805 188.997C578.316 188.997 578.73 188.904 579.046 188.717C579.363 188.531 579.594 188.275 579.74 187.951C579.886 187.618 579.959 187.241 579.959 186.819ZM598.718 181.16V184.141C598.718 185.391 598.572 186.486 598.28 187.427C597.988 188.368 597.566 189.155 597.014 189.788C596.462 190.413 595.801 190.883 595.03 191.2C594.26 191.516 593.408 191.674 592.475 191.674C591.534 191.674 590.678 191.516 589.907 191.2C589.136 190.883 588.471 190.413 587.911 189.788C587.36 189.155 586.93 188.368 586.621 187.427C586.321 186.486 586.171 185.391 586.171 184.141V181.16C586.171 179.886 586.321 178.771 586.621 177.813C586.921 176.856 587.347 176.057 587.899 175.416C588.459 174.775 589.124 174.292 589.895 173.968C590.666 173.635 591.518 173.469 592.451 173.469C593.392 173.469 594.244 173.635 595.006 173.968C595.777 174.292 596.438 174.775 596.99 175.416C597.55 176.057 597.976 176.856 598.268 177.813C598.568 178.771 598.718 179.886 598.718 181.16ZM595.481 184.141V181.136C595.481 180.267 595.416 179.521 595.286 178.896C595.156 178.272 594.962 177.765 594.702 177.375C594.442 176.978 594.122 176.685 593.74 176.499C593.367 176.312 592.937 176.219 592.451 176.219C591.956 176.219 591.518 176.312 591.136 176.499C590.763 176.685 590.447 176.978 590.187 177.375C589.935 177.765 589.745 178.272 589.615 178.896C589.485 179.521 589.42 180.267 589.42 181.136V184.141C589.42 184.993 589.485 185.723 589.615 186.332C589.745 186.94 589.94 187.435 590.199 187.817C590.467 188.198 590.787 188.482 591.161 188.669C591.542 188.847 591.98 188.936 592.475 188.936C592.962 188.936 593.392 188.847 593.765 188.669C594.146 188.482 594.463 188.198 594.714 187.817C594.974 187.435 595.164 186.94 595.286 186.332C595.416 185.723 595.481 184.993 595.481 184.141ZM610.82 185.59H614.069C614.012 186.896 613.745 188.003 613.266 188.912C612.795 189.812 612.118 190.498 611.234 190.969C610.357 191.439 609.291 191.674 608.033 191.674C607.076 191.674 606.22 191.508 605.465 191.175C604.711 190.835 604.07 190.344 603.542 189.703C603.023 189.062 602.626 188.275 602.35 187.342C602.082 186.401 601.948 185.326 601.948 184.117V181.038C601.948 179.829 602.09 178.754 602.374 177.813C602.658 176.872 603.064 176.077 603.591 175.428C604.127 174.779 604.776 174.288 605.538 173.955C606.301 173.623 607.161 173.456 608.118 173.456C609.384 173.456 610.443 173.696 611.295 174.174C612.146 174.653 612.804 175.355 613.266 176.28C613.728 177.197 614 178.316 614.081 179.639H610.832C610.8 178.779 610.694 178.097 610.516 177.594C610.337 177.083 610.057 176.718 609.676 176.499C609.295 176.28 608.775 176.17 608.118 176.17C607.607 176.17 607.165 176.264 606.792 176.45C606.419 176.637 606.114 176.929 605.879 177.326C605.644 177.716 605.469 178.215 605.356 178.823C605.242 179.432 605.185 180.162 605.185 181.014V184.117C605.185 184.937 605.234 185.65 605.331 186.259C605.429 186.867 605.583 187.374 605.794 187.78C606.013 188.178 606.305 188.478 606.67 188.681C607.035 188.875 607.489 188.973 608.033 188.973C608.69 188.973 609.214 188.875 609.603 188.681C609.992 188.478 610.28 188.133 610.467 187.646C610.662 187.151 610.779 186.466 610.82 185.59ZM620.598 173.712V191.431H617.36V173.712H620.598ZM631.069 176.511L627.016 191.431H623.584L629.17 173.712H631.312L631.069 176.511ZM634.269 191.431L630.217 176.511L629.937 173.712H632.103L637.713 191.431H634.269ZM634.379 184.835V187.549H626.25V184.835H634.379ZM650.01 188.717V191.431H642.648V188.717H650.01ZM643.585 173.712V191.431H640.323V173.712H643.585ZM660.53 186.819C660.53 186.47 660.494 186.162 660.421 185.894C660.356 185.618 660.226 185.367 660.031 185.139C659.836 184.912 659.557 184.689 659.191 184.47C658.826 184.243 658.356 184.012 657.78 183.776C657.098 183.5 656.453 183.208 655.845 182.9C655.236 182.584 654.693 182.219 654.214 181.805C653.735 181.391 653.358 180.904 653.082 180.344C652.815 179.785 652.681 179.132 652.681 178.385C652.681 177.655 652.81 176.99 653.07 176.389C653.338 175.781 653.715 175.262 654.202 174.832C654.689 174.394 655.265 174.057 655.93 173.822C656.603 173.586 657.346 173.469 658.157 173.469C659.301 173.469 660.283 173.708 661.102 174.187C661.922 174.665 662.554 175.314 663.001 176.134C663.447 176.953 663.67 177.878 663.67 178.908H660.421C660.421 178.373 660.339 177.898 660.177 177.485C660.023 177.063 659.776 176.734 659.435 176.499C659.094 176.264 658.656 176.146 658.121 176.146C657.618 176.146 657.204 176.247 656.879 176.45C656.555 176.645 656.315 176.913 656.161 177.253C656.007 177.586 655.93 177.967 655.93 178.397C655.93 178.706 655.999 178.986 656.137 179.237C656.283 179.48 656.482 179.704 656.733 179.906C656.985 180.109 657.289 180.304 657.646 180.491C658.011 180.669 658.417 180.843 658.863 181.014C659.682 181.322 660.4 181.663 661.017 182.036C661.633 182.401 662.145 182.815 662.55 183.277C662.964 183.732 663.272 184.247 663.475 184.823C663.678 185.399 663.779 186.056 663.779 186.794C663.779 187.525 663.654 188.19 663.402 188.79C663.151 189.391 662.786 189.906 662.307 190.336C661.828 190.766 661.248 191.098 660.567 191.334C659.893 191.561 659.143 191.674 658.315 191.674C657.52 191.674 656.762 191.561 656.039 191.334C655.326 191.098 654.693 190.745 654.141 190.275C653.589 189.804 653.155 189.212 652.839 188.498C652.522 187.776 652.364 186.928 652.364 185.955H655.614C655.614 186.498 655.674 186.969 655.796 187.366C655.918 187.756 656.1 188.072 656.344 188.316C656.587 188.551 656.879 188.725 657.22 188.839C657.561 188.944 657.946 188.997 658.376 188.997C658.887 188.997 659.301 188.904 659.617 188.717C659.934 188.531 660.165 188.275 660.311 187.951C660.457 187.618 660.53 187.241 660.53 186.819ZM673.009 185.03H669.322V182.304H672.997C673.565 182.304 674.019 182.186 674.36 181.951C674.709 181.707 674.961 181.371 675.115 180.941C675.277 180.511 675.358 180.024 675.358 179.48C675.358 178.953 675.277 178.458 675.115 177.996C674.961 177.525 674.709 177.148 674.36 176.864C674.019 176.58 673.569 176.438 673.009 176.438H670.308V191.431H667.058V173.712H673.009C674.186 173.712 675.196 173.959 676.04 174.454C676.883 174.949 677.528 175.631 677.975 176.499C678.429 177.359 678.656 178.345 678.656 179.456C678.656 180.6 678.429 181.59 677.975 182.425C677.52 183.253 676.871 183.894 676.027 184.348C675.192 184.803 674.186 185.03 673.009 185.03ZM691.671 180.989V183.703H684.308V180.989H691.671ZM685.16 173.712V191.431H681.899V173.712H685.16ZM694.117 173.712V191.431H690.88V173.712H694.117ZM707.996 188.717V191.431H700.305V188.717H707.996ZM701.242 173.712V191.431H697.98V173.712H701.242ZM706.961 180.989V183.63H700.305V180.989H706.961ZM707.947 173.712V176.438H700.305V173.712H707.947ZM711.007 173.712H716.52C717.696 173.712 718.698 173.915 719.526 174.32C720.353 174.726 720.982 175.327 721.412 176.122C721.85 176.917 722.069 177.894 722.069 179.054C722.069 179.979 721.935 180.783 721.668 181.464C721.408 182.137 721.035 182.701 720.548 183.156C720.069 183.61 719.489 183.963 718.808 184.214L717.822 184.774H713.258L713.246 182.06H716.447C716.974 182.06 717.412 181.943 717.761 181.707C718.118 181.472 718.382 181.148 718.552 180.734C718.731 180.312 718.82 179.829 718.82 179.286C718.82 178.693 718.739 178.186 718.577 177.765C718.422 177.335 718.175 177.006 717.834 176.779C717.502 176.552 717.063 176.438 716.52 176.438H714.268V191.431H711.007V173.712ZM719.161 191.431L715.838 183.496H719.258L722.641 191.261V191.431H719.161ZM735.437 188.717V191.431H727.746V188.717H735.437ZM728.683 173.712V191.431H725.421V173.712H728.683ZM734.402 180.989V183.63H727.746V180.989H734.402ZM735.388 173.712V176.438H727.746V173.712H735.388Z" fill="white"/>
<path d="M738.485 189.825C738.485 189.314 738.647 188.892 738.971 188.559C739.304 188.218 739.758 188.048 740.334 188.048C740.91 188.048 741.361 188.218 741.685 188.559C742.018 188.892 742.184 189.314 742.184 189.825C742.184 190.32 742.018 190.733 741.685 191.066C741.361 191.399 740.91 191.565 740.334 191.565C739.758 191.565 739.304 191.399 738.971 191.066C738.647 190.733 738.485 190.32 738.485 189.825ZM752.558 176.511L748.506 191.431H745.074L750.66 173.712H752.802L752.558 176.511ZM755.759 191.431L751.706 176.511L751.426 173.712H753.593L759.203 191.431H755.759ZM755.868 184.835V187.549H747.739V184.835H755.868ZM761.825 173.712H767.338C768.514 173.712 769.516 173.915 770.343 174.32C771.171 174.726 771.8 175.327 772.23 176.122C772.668 176.917 772.887 177.894 772.887 179.054C772.887 179.979 772.753 180.783 772.485 181.464C772.226 182.137 771.852 182.701 771.366 183.156C770.887 183.61 770.307 183.963 769.625 184.214L768.64 184.774H764.076L764.064 182.06H767.264C767.792 182.06 768.23 181.943 768.579 181.707C768.936 181.472 769.199 181.148 769.37 180.734C769.548 180.312 769.638 179.829 769.638 179.286C769.638 178.693 769.556 178.186 769.394 177.765C769.24 177.335 768.993 177.006 768.652 176.779C768.319 176.552 767.881 176.438 767.338 176.438H765.086V191.431H761.825V173.712ZM769.978 191.431L766.656 183.496H770.076L773.459 191.261V191.431H769.978ZM782.08 183.569H778.454L778.442 181.16H781.594C782.08 181.16 782.486 181.071 782.811 180.892C783.143 180.706 783.391 180.438 783.553 180.089C783.723 179.74 783.808 179.314 783.808 178.811C783.808 178.243 783.731 177.789 783.577 177.448C783.431 177.099 783.196 176.844 782.871 176.681C782.547 176.519 782.125 176.438 781.606 176.438H779.5V191.431H776.239V173.712H781.606C782.466 173.712 783.232 173.809 783.906 174.004C784.579 174.191 785.151 174.483 785.622 174.88C786.092 175.278 786.449 175.781 786.693 176.389C786.944 176.99 787.07 177.704 787.07 178.531C787.07 179.261 786.92 179.931 786.62 180.539C786.319 181.148 785.865 181.647 785.257 182.036C784.648 182.425 783.869 182.649 782.92 182.705L782.08 183.569ZM781.959 191.431H777.468L778.855 188.717H781.959C782.462 188.717 782.867 188.612 783.176 188.401C783.492 188.19 783.727 187.898 783.881 187.525C784.036 187.143 784.113 186.705 784.113 186.21C784.113 185.675 784.044 185.208 783.906 184.811C783.776 184.413 783.561 184.109 783.261 183.898C782.969 183.679 782.575 183.569 782.08 183.569H779.062L779.087 181.16H782.847L783.614 182.097C784.506 182.089 785.228 182.284 785.78 182.681C786.332 183.079 786.733 183.594 786.985 184.227C787.236 184.851 787.362 185.525 787.362 186.247C787.362 187.374 787.151 188.324 786.729 189.094C786.307 189.865 785.695 190.449 784.892 190.847C784.088 191.236 783.111 191.431 781.959 191.431Z" fill="#00EE76"/>
</g>
<g filter="url(#filter4_d_229_56)">
<rect x="601.778" y="19.7778" width="216.222" height="68.4444" stroke="white" stroke-width="1.55556" shape-rendering="crispEdges"/>
</g>
<path d="M645.106 51.2245V53.7652H638.213V51.2245H645.106ZM639.011 44.4114V60.9999H635.958V44.4114H639.011ZM647.396 44.4114V60.9999H644.366V44.4114H647.396ZM654.18 44.4114V60.9999H651.15V44.4114H654.18ZM662.935 57.6845L666.274 44.4114H669.566L664.69 60.9999H662.446L662.935 57.6845ZM660.042 44.4114L663.368 57.6845L663.881 60.9999H661.625L656.772 44.4114H660.042ZM681.386 58.4592V60.9999H674.186V58.4592H681.386ZM675.063 44.4114V60.9999H672.009V44.4114H675.063ZM680.418 51.2245V53.6968H674.186V51.2245H680.418ZM681.34 44.4114V46.9635H674.186V44.4114H681.34ZM685.253 44.4114H687.976L691.588 56.2603L695.165 44.4114H697.638L692.716 60.9999H690.437L685.253 44.4114ZM684.194 44.4114H686.757L687.156 55.1666V60.9999H684.194V44.4114ZM696.385 44.4114H698.959V60.9999H695.997V55.1666L696.385 44.4114ZM705.743 44.4114V60.9999H702.713V44.4114H705.743ZM720.901 44.4114V60.9999H717.928L712.391 50.0738V60.9999H709.474V44.4114H712.402L717.985 55.44V44.4114H720.901ZM728.711 60.9999H725.806L725.828 58.4592H728.711C729.554 58.4592 730.219 58.3073 730.705 58.0035C731.198 57.6921 731.548 57.2098 731.753 56.5565C731.965 55.9033 732.072 55.0602 732.072 54.0273V51.3726C732.072 50.5827 732.015 49.9105 731.901 49.356C731.787 48.794 731.601 48.3382 731.343 47.9888C731.084 47.6394 730.746 47.3812 730.329 47.2141C729.911 47.047 729.394 46.9635 728.779 46.9635H725.749V44.4114H728.779C729.736 44.4114 730.602 44.5671 731.377 44.8785C732.152 45.1823 732.816 45.6304 733.371 46.2229C733.933 46.8153 734.362 47.5483 734.658 48.4218C734.954 49.2877 735.102 50.2789 735.102 51.3954V54.0273C735.102 55.1438 734.954 56.135 734.658 57.0009C734.362 57.8668 733.933 58.5959 733.371 59.1884C732.816 59.7808 732.144 60.2328 731.354 60.5442C730.572 60.848 729.691 60.9999 728.711 60.9999ZM727.56 44.4114V60.9999H724.507V44.4114H727.56Z" fill="white"/>
<path d="M738.468 59.496C738.468 59.0175 738.62 58.6225 738.924 58.3111C739.236 57.9921 739.661 57.8326 740.2 57.8326C740.739 57.8326 741.161 57.9921 741.465 58.3111C741.776 58.6225 741.932 59.0175 741.932 59.496C741.932 59.9593 741.776 60.3467 741.465 60.6581C741.161 60.9695 740.739 61.1252 740.2 61.1252C739.661 61.1252 739.236 60.9695 738.924 60.6581C738.62 60.3467 738.468 59.9593 738.468 59.496ZM751.644 47.0318L747.85 60.9999H744.637L749.867 44.4114H751.872L751.644 47.0318ZM754.64 60.9999L750.846 47.0318L750.584 44.4114H752.612L757.865 60.9999H754.64ZM754.743 54.8248V57.3655H747.132V54.8248H754.743ZM760.319 44.4114H765.48C766.582 44.4114 767.52 44.6013 768.295 44.981C769.069 45.3608 769.658 45.9229 770.06 46.6672C770.471 47.4116 770.676 48.3268 770.676 49.413C770.676 50.2789 770.55 51.0308 770.3 51.6689C770.057 52.2993 769.707 52.8272 769.252 53.2525C768.803 53.6779 768.26 54.0083 767.622 54.2437L766.699 54.7678H762.427L762.416 52.2271H765.412C765.906 52.2271 766.316 52.117 766.643 51.8967C766.977 51.6764 767.224 51.3726 767.383 50.9853C767.55 50.5903 767.634 50.1384 767.634 49.6295C767.634 49.075 767.558 48.6003 767.406 48.2053C767.262 47.8028 767.03 47.4951 766.711 47.2825C766.399 47.0698 765.989 46.9635 765.48 46.9635H763.373V60.9999H760.319V44.4114ZM767.953 60.9999L764.842 53.5715H768.044L771.211 60.8404V60.9999H767.953ZM779.283 53.6399H775.887L775.876 51.384H778.827C779.283 51.384 779.662 51.3005 779.966 51.1334C780.278 50.9587 780.509 50.708 780.661 50.3814C780.821 50.0548 780.9 49.6561 780.9 49.1851C780.9 48.6534 780.828 48.2281 780.684 47.9091C780.547 47.5825 780.327 47.3432 780.023 47.1913C779.719 47.0394 779.324 46.9635 778.838 46.9635H776.867V60.9999H773.814V44.4114H778.838C779.643 44.4114 780.361 44.5025 780.992 44.6848C781.622 44.8595 782.158 45.1329 782.598 45.5051C783.039 45.8773 783.373 46.3482 783.601 46.9179C783.836 47.4799 783.954 48.1483 783.954 48.9231C783.954 49.6067 783.813 50.2333 783.532 50.803C783.251 51.3726 782.826 51.8398 782.256 52.2043C781.687 52.5689 780.957 52.7778 780.069 52.831L779.283 53.6399ZM779.169 60.9999H774.965L776.263 58.4592H779.169C779.64 58.4592 780.019 58.3605 780.308 58.163C780.604 57.9655 780.825 57.6921 780.969 57.3427C781.113 56.9857 781.185 56.5755 781.185 56.1122C781.185 55.6109 781.121 55.1742 780.992 54.802C780.87 54.4298 780.669 54.145 780.388 53.9475C780.114 53.7424 779.746 53.6399 779.283 53.6399H776.457L776.48 51.384H780L780.718 52.2613C781.554 52.2537 782.23 52.436 782.746 52.8082C783.263 53.1804 783.639 53.6627 783.874 54.2551C784.11 54.84 784.227 55.4704 784.227 56.1464C784.227 57.2022 784.03 58.0908 783.635 58.8124C783.24 59.534 782.666 60.0809 781.914 60.453C781.163 60.8176 780.247 60.9999 779.169 60.9999Z" fill="#C91DF4"/>
<g opacity="0.7">
<rect x="84.75" y="197.75" width="215.988" height="65.9962" stroke="white" stroke-width="1.49991"/>
<path d="M114.614 222.254V238.249H111.67V222.254H114.614ZM119.711 229.142V231.592H113.9V229.142H119.711ZM120.393 222.254V224.715H113.9V222.254H120.393ZM123.1 222.254H128.076C129.138 222.254 130.043 222.437 130.79 222.803C131.537 223.169 132.104 223.711 132.493 224.429C132.888 225.147 133.086 226.029 133.086 227.077C133.086 227.912 132.965 228.637 132.723 229.252C132.489 229.86 132.152 230.369 131.713 230.779C131.281 231.189 130.757 231.508 130.142 231.735L129.252 232.24H125.132L125.121 229.79H128.01C128.486 229.79 128.882 229.684 129.197 229.472C129.519 229.259 129.757 228.966 129.911 228.593C130.072 228.212 130.153 227.776 130.153 227.285C130.153 226.751 130.079 226.293 129.933 225.912C129.794 225.524 129.57 225.227 129.263 225.022C128.963 224.817 128.567 224.715 128.076 224.715H126.044V238.249H123.1V222.254ZM130.46 238.249L127.461 231.086H130.548L133.602 238.095V238.249H130.46ZM139.166 222.254V238.249H136.244V222.254H139.166ZM151.804 235.799V238.249H144.861V235.799H151.804ZM145.707 222.254V238.249H142.763V222.254H145.707ZM150.87 228.823V231.207H144.861V228.823H150.87ZM151.76 222.254V224.715H144.861V222.254H151.76ZM165.53 222.254V238.249H162.663L157.324 227.714V238.249H154.511V222.254H157.335L162.718 232.888V222.254H165.53ZM173.06 238.249H170.259L170.281 235.799H173.06C173.873 235.799 174.514 235.653 174.983 235.36C175.459 235.06 175.796 234.595 175.993 233.965C176.198 233.335 176.301 232.522 176.301 231.526V228.966C176.301 228.205 176.246 227.556 176.136 227.022C176.026 226.48 175.847 226.04 175.598 225.703C175.349 225.367 175.023 225.118 174.62 224.956C174.217 224.795 173.719 224.715 173.126 224.715H170.204V222.254H173.126C174.049 222.254 174.884 222.404 175.631 222.704C176.378 222.997 177.019 223.429 177.553 224.001C178.095 224.572 178.509 225.279 178.795 226.121C179.08 226.956 179.223 227.912 179.223 228.988V231.526C179.223 232.603 179.08 233.558 178.795 234.393C178.509 235.228 178.095 235.931 177.553 236.502C177.019 237.074 176.37 237.509 175.609 237.81C174.854 238.103 174.005 238.249 173.06 238.249ZM171.951 222.254V238.249H169.006V222.254H171.951ZM191.246 228.823V231.273H184.6V228.823H191.246ZM185.369 222.254V238.249H182.425V222.254H185.369ZM193.454 222.254V238.249H190.532V222.254H193.454ZM199.996 222.254V238.249H197.074V222.254H199.996ZM208.438 235.052L211.656 222.254H214.831L210.129 238.249H207.965L208.438 235.052ZM205.647 222.254L208.855 235.052L209.349 238.249H207.174L202.494 222.254H205.647ZM226.228 235.799V238.249H219.285V235.799H226.228ZM220.131 222.254V238.249H217.187V222.254H220.131ZM225.294 228.823V231.207H219.285V228.823H225.294ZM226.184 222.254V224.715H219.285V222.254H226.184Z" fill="white"/>
<path d="M228.979 236.799C228.979 236.338 229.126 235.957 229.419 235.657C229.719 235.349 230.129 235.195 230.649 235.195C231.169 235.195 231.576 235.349 231.869 235.657C232.169 235.957 232.319 236.338 232.319 236.799C232.319 237.246 232.169 237.619 231.869 237.92C231.576 238.22 231.169 238.37 230.649 238.37C230.129 238.37 229.719 238.22 229.419 237.92C229.126 237.619 228.979 237.246 228.979 236.799ZM245.067 235.799V238.249H238.124V235.799H245.067ZM238.97 222.254V238.249H236.026V222.254H238.97ZM244.134 228.823V231.207H238.124V228.823H244.134ZM245.023 222.254V224.715H238.124V222.254H245.023ZM254.08 222.254V238.249H251.158V222.254H254.08ZM258.112 222.254V224.715H247.192V222.254H258.112ZM269.597 228.823V231.273H262.951V228.823H269.597ZM263.72 222.254V238.249H260.776V222.254H263.72ZM271.805 222.254V238.249H268.883V222.254H271.805Z" fill="#00EE76"/>
</g>
<g filter="url(#filter5_d_229_56)">
<rect x="379.864" y="243.864" width="248.718" height="75.9973" stroke="white" stroke-width="1.72721" shape-rendering="crispEdges"/>
</g>
<path d="M430.222 271.898V290.317H426.857V271.898H430.222ZM447.053 271.898V290.317H443.751L437.603 278.185V290.317H434.364V271.898H437.616L443.814 284.144V271.898H447.053ZM459.937 284.245H463.314C463.255 285.603 462.977 286.754 462.479 287.699C461.99 288.635 461.286 289.347 460.367 289.836C459.456 290.326 458.347 290.57 457.04 290.57C456.044 290.57 455.155 290.397 454.37 290.052C453.586 289.697 452.92 289.187 452.372 288.521C451.832 287.855 451.419 287.036 451.132 286.067C450.854 285.088 450.714 283.971 450.714 282.714V279.514C450.714 278.257 450.862 277.14 451.157 276.161C451.452 275.183 451.874 274.357 452.422 273.682C452.979 273.007 453.654 272.497 454.446 272.151C455.239 271.805 456.133 271.632 457.128 271.632C458.444 271.632 459.544 271.881 460.43 272.379C461.316 272.876 461.999 273.606 462.479 274.567C462.96 275.52 463.243 276.684 463.327 278.059H459.949C459.916 277.165 459.806 276.456 459.62 275.934C459.435 275.402 459.144 275.023 458.747 274.795C458.351 274.567 457.811 274.453 457.128 274.453C456.597 274.453 456.137 274.55 455.749 274.744C455.361 274.938 455.045 275.242 454.801 275.655C454.556 276.06 454.375 276.579 454.257 277.211C454.138 277.844 454.079 278.603 454.079 279.488V282.714C454.079 283.566 454.13 284.308 454.231 284.941C454.332 285.573 454.493 286.1 454.712 286.522C454.94 286.935 455.243 287.247 455.623 287.458C456.002 287.661 456.475 287.762 457.04 287.762C457.723 287.762 458.267 287.661 458.672 287.458C459.076 287.247 459.376 286.889 459.57 286.383C459.772 285.868 459.894 285.156 459.937 284.245ZM470.101 271.898V290.317H466.735V271.898H470.101ZM474.255 271.898H479.986C481.209 271.898 482.251 272.109 483.111 272.531C483.971 272.952 484.625 273.576 485.072 274.403C485.527 275.229 485.755 276.246 485.755 277.452C485.755 278.413 485.616 279.248 485.337 279.956C485.067 280.656 484.679 281.243 484.173 281.715C483.676 282.187 483.073 282.554 482.364 282.815L481.34 283.397H476.596L476.583 280.576H479.91C480.458 280.576 480.914 280.454 481.276 280.209C481.648 279.965 481.922 279.628 482.099 279.197C482.284 278.759 482.377 278.257 482.377 277.692C482.377 277.076 482.293 276.549 482.124 276.111C481.964 275.664 481.707 275.322 481.352 275.086C481.007 274.85 480.551 274.732 479.986 274.732H477.646V290.317H474.255V271.898ZM482.731 290.317L479.278 282.069H482.832L486.349 290.14V290.317H482.731ZM498.12 284.245H501.497C501.438 285.603 501.16 286.754 500.663 287.699C500.173 288.635 499.469 289.347 498.55 289.836C497.639 290.326 496.53 290.57 495.223 290.57C494.228 290.57 493.338 290.397 492.554 290.052C491.769 289.697 491.103 289.187 490.555 288.521C490.015 287.855 489.602 287.036 489.315 286.067C489.037 285.088 488.898 283.971 488.898 282.714V279.514C488.898 278.257 489.045 277.14 489.34 276.161C489.636 275.183 490.057 274.357 490.605 273.682C491.162 273.007 491.837 272.497 492.629 272.151C493.422 271.805 494.316 271.632 495.311 271.632C496.627 271.632 497.728 271.881 498.613 272.379C499.499 272.876 500.182 273.606 500.663 274.567C501.143 275.52 501.426 276.684 501.51 278.059H498.132C498.099 277.165 497.989 276.456 497.804 275.934C497.618 275.402 497.327 275.023 496.931 274.795C496.534 274.567 495.995 274.453 495.311 274.453C494.78 274.453 494.32 274.55 493.932 274.744C493.545 274.938 493.228 275.242 492.984 275.655C492.739 276.06 492.558 276.579 492.44 277.211C492.322 277.844 492.263 278.603 492.263 279.488V282.714C492.263 283.566 492.313 284.308 492.414 284.941C492.516 285.573 492.676 286.1 492.895 286.522C493.123 286.935 493.426 287.247 493.806 287.458C494.185 287.661 494.658 287.762 495.223 287.762C495.906 287.762 496.45 287.661 496.855 287.458C497.26 287.247 497.559 286.889 497.753 286.383C497.955 285.868 498.078 285.156 498.12 284.245ZM514.837 287.496V290.317H507.183V287.496H514.837ZM508.157 271.898V290.317H504.767V271.898H508.157ZM528.328 287.496V290.317H520.332V287.496H528.328ZM521.307 271.898V290.317H517.916V271.898H521.307ZM527.252 279.463V282.208H520.332V279.463H527.252ZM528.277 271.898V274.732H520.332V271.898H528.277Z" fill="white"/>
<path d="M531.496 288.647C531.496 288.116 531.664 287.677 532.002 287.332C532.348 286.977 532.82 286.8 533.419 286.8C534.017 286.8 534.485 286.977 534.823 287.332C535.169 287.677 535.342 288.116 535.342 288.647C535.342 289.162 535.169 289.592 534.823 289.938C534.485 290.283 534.017 290.456 533.419 290.456C532.82 290.456 532.348 290.283 532.002 289.938C531.664 289.592 531.496 289.162 531.496 288.647ZM550.022 287.496V290.317H542.027V287.496H550.022ZM543.001 271.898V290.317H539.61V271.898H543.001ZM548.946 279.463V282.208H542.027V279.463H548.946ZM549.971 271.898V274.732H542.027V271.898H549.971ZM560.401 271.898V290.317H557.036V271.898H560.401ZM565.043 271.898V274.732H552.469V271.898H565.043ZM578.269 279.463V282.284H570.615V279.463H578.269ZM571.501 271.898V290.317H568.11V271.898H571.501ZM580.811 271.898V290.317H577.446V271.898H580.811Z" fill="#C91DF4"/>
<g opacity="0.5">
<rect x="149.632" y="303.911" width="181.985" height="55.6066" stroke="white" stroke-width="1.26379"/>
<path d="M186.398 335.276V337.34H180.798V335.276H186.398ZM181.511 323.863V337.34H179.03V323.863H181.511ZM197.343 329.528V331.795C197.343 332.746 197.232 333.579 197.01 334.294C196.787 335.01 196.467 335.609 196.047 336.09C195.627 336.565 195.124 336.923 194.538 337.164C193.952 337.405 193.304 337.525 192.594 337.525C191.879 337.525 191.228 337.405 190.641 337.164C190.055 336.923 189.549 336.565 189.123 336.09C188.704 335.609 188.377 335.01 188.142 334.294C187.914 333.579 187.8 332.746 187.8 331.795V329.528C187.8 328.559 187.914 327.71 188.142 326.982C188.37 326.254 188.694 325.646 189.114 325.159C189.54 324.671 190.046 324.304 190.632 324.057C191.218 323.804 191.866 323.678 192.576 323.678C193.292 323.678 193.94 323.804 194.52 324.057C195.106 324.304 195.609 324.671 196.028 325.159C196.454 325.646 196.778 326.254 197 326.982C197.229 327.71 197.343 328.559 197.343 329.528ZM194.881 331.795V329.509C194.881 328.849 194.831 328.281 194.733 327.806C194.634 327.331 194.486 326.945 194.288 326.649C194.091 326.346 193.847 326.124 193.557 325.982C193.273 325.84 192.946 325.769 192.576 325.769C192.199 325.769 191.866 325.84 191.576 325.982C191.292 326.124 191.052 326.346 190.854 326.649C190.663 326.945 190.518 327.331 190.419 327.806C190.32 328.281 190.271 328.849 190.271 329.509V331.795C190.271 332.443 190.32 332.999 190.419 333.461C190.518 333.924 190.666 334.301 190.863 334.591C191.067 334.881 191.311 335.097 191.595 335.239C191.885 335.374 192.218 335.442 192.594 335.442C192.965 335.442 193.292 335.374 193.576 335.239C193.866 335.097 194.106 334.881 194.298 334.591C194.495 334.301 194.64 333.924 194.733 333.461C194.831 332.999 194.881 332.443 194.881 331.795ZM209.352 329.528V331.795C209.352 332.746 209.241 333.579 209.019 334.294C208.797 335.01 208.476 335.609 208.056 336.09C207.637 336.565 207.134 336.923 206.548 337.164C205.961 337.405 205.313 337.525 204.604 337.525C203.888 337.525 203.237 337.405 202.651 337.164C202.064 336.923 201.558 336.565 201.133 336.09C200.713 335.609 200.386 335.01 200.152 334.294C199.923 333.579 199.809 332.746 199.809 331.795V329.528C199.809 328.559 199.923 327.71 200.152 326.982C200.38 326.254 200.704 325.646 201.123 325.159C201.549 324.671 202.055 324.304 202.641 324.057C203.228 323.804 203.876 323.678 204.585 323.678C205.301 323.678 205.949 323.804 206.529 324.057C207.115 324.304 207.618 324.671 208.038 325.159C208.464 325.646 208.788 326.254 209.01 326.982C209.238 327.71 209.352 328.559 209.352 329.528ZM206.89 331.795V329.509C206.89 328.849 206.841 328.281 206.742 327.806C206.643 327.331 206.495 326.945 206.298 326.649C206.1 326.346 205.856 326.124 205.566 325.982C205.283 325.84 204.956 325.769 204.585 325.769C204.209 325.769 203.876 325.84 203.586 325.982C203.302 326.124 203.061 326.346 202.864 326.649C202.672 326.945 202.527 327.331 202.429 327.806C202.33 328.281 202.28 328.849 202.28 329.509V331.795C202.28 332.443 202.33 332.999 202.429 333.461C202.527 333.924 202.675 334.301 202.873 334.591C203.077 334.881 203.32 335.097 203.604 335.239C203.894 335.374 204.227 335.442 204.604 335.442C204.974 335.442 205.301 335.374 205.585 335.239C205.875 335.097 206.116 334.881 206.307 334.591C206.504 334.301 206.649 333.924 206.742 333.461C206.841 332.999 206.89 332.443 206.89 331.795ZM216.585 332.471H213.781V330.398H216.576C217.008 330.398 217.354 330.308 217.613 330.129C217.878 329.944 218.07 329.688 218.187 329.361C218.31 329.034 218.372 328.664 218.372 328.25C218.372 327.849 218.31 327.473 218.187 327.121C218.07 326.763 217.878 326.476 217.613 326.26C217.354 326.044 217.011 325.936 216.585 325.936H214.531V337.34H212.059V323.863H216.585C217.48 323.863 218.248 324.051 218.89 324.427C219.532 324.804 220.023 325.322 220.362 325.982C220.708 326.636 220.88 327.386 220.88 328.232C220.88 329.102 220.708 329.855 220.362 330.49C220.016 331.12 219.523 331.607 218.881 331.953C218.245 332.298 217.48 332.471 216.585 332.471ZM229.095 333.832C229.095 333.566 229.067 333.332 229.011 333.128C228.962 332.918 228.863 332.727 228.715 332.554C228.567 332.382 228.354 332.212 228.076 332.045C227.799 331.872 227.441 331.697 227.003 331.518C226.484 331.308 225.994 331.086 225.531 330.851C225.068 330.611 224.655 330.333 224.291 330.018C223.927 329.703 223.64 329.333 223.43 328.907C223.226 328.482 223.124 327.985 223.124 327.417C223.124 326.862 223.223 326.356 223.421 325.899C223.624 325.436 223.911 325.041 224.281 324.714C224.652 324.381 225.09 324.125 225.596 323.946C226.108 323.767 226.673 323.678 227.29 323.678C228.16 323.678 228.906 323.86 229.53 324.224C230.153 324.588 230.634 325.081 230.974 325.705C231.313 326.328 231.483 327.031 231.483 327.815H229.011C229.011 327.408 228.95 327.047 228.826 326.732C228.709 326.411 228.521 326.161 228.262 325.982C228.002 325.803 227.669 325.714 227.262 325.714C226.879 325.714 226.565 325.791 226.318 325.945C226.071 326.093 225.889 326.297 225.772 326.556C225.654 326.809 225.596 327.099 225.596 327.426C225.596 327.661 225.648 327.874 225.753 328.065C225.864 328.25 226.015 328.42 226.207 328.574C226.398 328.728 226.629 328.877 226.901 329.018C227.179 329.154 227.487 329.287 227.827 329.416C228.45 329.651 228.996 329.91 229.465 330.194C229.934 330.472 230.323 330.786 230.631 331.138C230.946 331.484 231.18 331.876 231.335 332.314C231.489 332.752 231.566 333.252 231.566 333.813C231.566 334.369 231.47 334.875 231.279 335.331C231.088 335.788 230.81 336.18 230.446 336.507C230.082 336.834 229.641 337.087 229.122 337.266C228.61 337.439 228.039 337.525 227.41 337.525C226.805 337.525 226.228 337.439 225.679 337.266C225.136 337.087 224.655 336.818 224.235 336.46C223.816 336.103 223.485 335.652 223.245 335.109C223.004 334.56 222.884 333.915 222.884 333.174H225.355C225.355 333.588 225.401 333.946 225.494 334.248C225.587 334.544 225.725 334.785 225.911 334.97C226.096 335.149 226.318 335.282 226.577 335.368C226.836 335.448 227.129 335.489 227.456 335.489C227.845 335.489 228.16 335.418 228.4 335.276C228.641 335.134 228.817 334.939 228.928 334.693C229.039 334.44 229.095 334.153 229.095 333.832ZM239.188 323.863V337.34H236.726V323.863H239.188ZM242.585 323.863V325.936H233.384V323.863H242.585ZM252.447 335.276V337.34H246.597V335.276H252.447ZM247.31 323.863V337.34H244.829V323.863H247.31ZM251.66 329.398V331.407H246.597V329.398H251.66ZM252.41 323.863V325.936H246.597V323.863H252.41ZM254.737 323.863H258.931C259.825 323.863 260.587 324.017 261.217 324.326C261.846 324.634 262.324 325.091 262.652 325.695C262.985 326.3 263.151 327.044 263.151 327.926C263.151 328.63 263.05 329.241 262.846 329.759C262.648 330.271 262.365 330.7 261.994 331.046C261.63 331.391 261.189 331.66 260.671 331.851L259.921 332.277H256.45L256.441 330.212H258.875C259.276 330.212 259.609 330.123 259.875 329.944C260.146 329.765 260.347 329.518 260.476 329.204C260.612 328.883 260.68 328.516 260.68 328.102C260.68 327.652 260.618 327.266 260.495 326.945C260.378 326.618 260.189 326.368 259.93 326.195C259.677 326.023 259.344 325.936 258.931 325.936H257.218V337.34H254.737V323.863ZM260.939 337.34L258.412 331.305H261.013L263.586 337.21V337.34H260.939Z" fill="white"/>
<path d="M265.738 336.118C265.738 335.729 265.861 335.408 266.108 335.155C266.361 334.896 266.707 334.767 267.145 334.767C267.583 334.767 267.925 334.896 268.172 335.155C268.425 335.408 268.552 335.729 268.552 336.118C268.552 336.494 268.425 336.809 268.172 337.062C267.925 337.315 267.583 337.442 267.145 337.442C266.707 337.442 266.361 337.315 266.108 337.062C265.861 336.809 265.738 336.494 265.738 336.118ZM279.293 335.276V337.34H273.443V335.276H279.293ZM274.156 323.863V337.34H271.675V323.863H274.156ZM278.506 329.398V331.407H273.443V329.398H278.506ZM279.256 323.863V325.936H273.443V323.863H279.256ZM286.887 323.863V337.34H284.425V323.863H286.887ZM290.284 323.863V325.936H281.084V323.863H290.284ZM299.961 329.398V331.462H294.361V329.398H299.961ZM295.009 323.863V337.34H292.528V323.863H295.009ZM301.822 323.863V337.34H299.36V323.863H301.822Z" fill="#C91DF4"/>
</g>
<g filter="url(#filter6_d_229_56)">
<rect x="664.632" y="288.632" width="181.985" height="55.6066" stroke="white" stroke-width="1.26379" shape-rendering="crispEdges"/>
</g>
<path d="M696.918 318.553C696.918 318.288 696.89 318.053 696.835 317.85C696.785 317.64 696.687 317.448 696.539 317.276C696.391 317.103 696.178 316.933 695.9 316.767C695.622 316.594 695.264 316.418 694.826 316.239C694.308 316.029 693.817 315.807 693.354 315.573C692.892 315.332 692.478 315.054 692.114 314.739C691.75 314.425 691.463 314.055 691.253 313.629C691.05 313.203 690.948 312.706 690.948 312.138C690.948 311.583 691.047 311.077 691.244 310.62C691.448 310.158 691.735 309.763 692.105 309.436C692.475 309.102 692.913 308.846 693.419 308.667C693.931 308.488 694.496 308.399 695.113 308.399C695.983 308.399 696.73 308.581 697.353 308.945C697.976 309.309 698.458 309.803 698.797 310.426C699.137 311.049 699.306 311.753 699.306 312.537H696.835C696.835 312.129 696.773 311.768 696.65 311.454C696.532 311.133 696.344 310.883 696.085 310.704C695.826 310.525 695.493 310.435 695.085 310.435C694.703 310.435 694.388 310.512 694.141 310.667C693.894 310.815 693.712 311.018 693.595 311.278C693.478 311.531 693.419 311.821 693.419 312.148C693.419 312.382 693.472 312.595 693.577 312.786C693.688 312.972 693.839 313.141 694.03 313.296C694.221 313.45 694.453 313.598 694.724 313.74C695.002 313.876 695.311 314.008 695.65 314.138C696.273 314.372 696.819 314.631 697.288 314.915C697.757 315.193 698.146 315.508 698.455 315.859C698.769 316.205 699.004 316.597 699.158 317.035C699.312 317.473 699.39 317.973 699.39 318.535C699.39 319.09 699.294 319.596 699.103 320.053C698.911 320.509 698.634 320.901 698.27 321.228C697.905 321.555 697.464 321.808 696.946 321.987C696.434 322.16 695.863 322.246 695.233 322.246C694.629 322.246 694.052 322.16 693.503 321.987C692.96 321.808 692.478 321.54 692.059 321.182C691.639 320.824 691.309 320.373 691.068 319.83C690.828 319.281 690.707 318.636 690.707 317.896H693.179C693.179 318.309 693.225 318.667 693.317 318.97C693.41 319.266 693.549 319.506 693.734 319.692C693.919 319.871 694.141 320.003 694.4 320.09C694.66 320.17 694.953 320.21 695.28 320.21C695.669 320.21 695.983 320.139 696.224 319.997C696.465 319.855 696.64 319.661 696.752 319.414C696.863 319.161 696.918 318.874 696.918 318.553ZM711.168 308.584V322.061H708.752L704.253 313.184V322.061H701.884V308.584H704.262L708.798 317.544V308.584H711.168ZM719.03 310.713L715.948 322.061H713.338L717.586 308.584H719.215L719.03 310.713ZM721.465 322.061L718.382 310.713L718.169 308.584H719.817L724.084 322.061H721.465ZM721.548 317.044V319.108H715.365V317.044H721.548ZM730.595 317.192H727.791V315.119H730.586C731.018 315.119 731.364 315.03 731.623 314.851C731.888 314.665 732.079 314.409 732.197 314.082C732.32 313.755 732.382 313.385 732.382 312.972C732.382 312.57 732.32 312.194 732.197 311.842C732.079 311.484 731.888 311.197 731.623 310.981C731.364 310.765 731.021 310.657 730.595 310.657H728.54V322.061H726.069V308.584H730.595C731.49 308.584 732.258 308.772 732.9 309.149C733.542 309.525 734.032 310.043 734.372 310.704C734.717 311.358 734.89 312.108 734.89 312.953C734.89 313.823 734.717 314.576 734.372 315.212C734.026 315.841 733.533 316.328 732.891 316.674C732.255 317.02 731.49 317.192 730.595 317.192ZM741.799 316.082H739.041L739.032 314.249H741.429C741.799 314.249 742.108 314.181 742.355 314.045C742.608 313.903 742.796 313.7 742.919 313.434C743.049 313.169 743.114 312.845 743.114 312.462C743.114 312.03 743.055 311.685 742.938 311.426C742.827 311.16 742.648 310.966 742.401 310.843C742.154 310.719 741.833 310.657 741.438 310.657H739.837V322.061H737.356V308.584H741.438C742.093 308.584 742.676 308.658 743.188 308.806C743.7 308.948 744.135 309.17 744.493 309.473C744.851 309.775 745.122 310.158 745.308 310.62C745.499 311.077 745.594 311.62 745.594 312.25C745.594 312.805 745.48 313.314 745.252 313.777C745.024 314.24 744.678 314.619 744.215 314.915C743.752 315.212 743.16 315.381 742.438 315.424L741.799 316.082ZM741.707 322.061H738.291L739.346 319.997H741.707C742.089 319.997 742.398 319.917 742.632 319.756C742.873 319.596 743.052 319.374 743.169 319.09C743.287 318.8 743.345 318.467 743.345 318.09C743.345 317.683 743.293 317.328 743.188 317.026C743.089 316.723 742.926 316.492 742.697 316.332C742.475 316.165 742.176 316.082 741.799 316.082H739.504L739.522 314.249H742.383L742.966 314.962C743.644 314.955 744.194 315.104 744.613 315.406C745.033 315.708 745.338 316.1 745.53 316.581C745.721 317.057 745.817 317.569 745.817 318.118C745.817 318.976 745.656 319.698 745.335 320.284C745.014 320.87 744.549 321.315 743.938 321.617C743.327 321.913 742.583 322.061 741.707 322.061ZM753.263 310.713L750.18 322.061H747.57L751.819 308.584H753.448L753.263 310.713ZM755.697 322.061L752.615 310.713L752.402 308.584H754.049L758.317 322.061H755.697ZM755.78 317.044V319.108H749.597V317.044H755.78ZM766.614 317.618H769.086C769.042 318.612 768.839 319.454 768.475 320.145C768.117 320.83 767.602 321.352 766.929 321.709C766.263 322.067 765.451 322.246 764.495 322.246C763.766 322.246 763.115 322.12 762.542 321.867C761.968 321.608 761.48 321.234 761.079 320.747C760.684 320.259 760.382 319.661 760.172 318.951C759.968 318.235 759.866 317.418 759.866 316.498V314.156C759.866 313.237 759.974 312.419 760.19 311.703C760.406 310.988 760.715 310.383 761.116 309.889C761.523 309.396 762.017 309.022 762.597 308.769C763.177 308.516 763.831 308.39 764.559 308.39C765.522 308.39 766.327 308.572 766.975 308.936C767.623 309.3 768.123 309.834 768.475 310.537C768.827 311.234 769.033 312.086 769.095 313.092H766.624C766.599 312.438 766.519 311.919 766.383 311.537C766.247 311.148 766.034 310.87 765.744 310.704C765.454 310.537 765.059 310.454 764.559 310.454C764.171 310.454 763.834 310.525 763.55 310.667C763.267 310.809 763.035 311.031 762.856 311.333C762.677 311.629 762.545 312.009 762.458 312.472C762.372 312.935 762.329 313.49 762.329 314.138V316.498C762.329 317.121 762.366 317.664 762.44 318.127C762.514 318.59 762.631 318.976 762.791 319.284C762.958 319.587 763.18 319.815 763.458 319.969C763.736 320.117 764.081 320.191 764.495 320.191C764.994 320.191 765.392 320.117 765.689 319.969C765.985 319.815 766.204 319.553 766.346 319.182C766.494 318.806 766.583 318.285 766.614 317.618ZM773.959 308.584V322.061H771.478V308.584H773.959ZM780.669 308.584L776.236 315.184L773.551 318.507L773.088 315.971L774.875 313.147L777.661 308.584H780.669ZM777.865 322.061L774.69 315.785L776.458 314.101L780.799 322.061H777.865Z" fill="white"/>
<path d="M782.543 320.839C782.543 320.451 782.667 320.13 782.913 319.877C783.166 319.618 783.512 319.488 783.95 319.488C784.388 319.488 784.731 319.618 784.978 319.877C785.231 320.13 785.357 320.451 785.357 320.839C785.357 321.216 785.231 321.53 784.978 321.783C784.731 322.036 784.388 322.163 783.95 322.163C783.512 322.163 783.166 322.036 782.913 321.783C782.667 321.53 782.543 321.216 782.543 320.839ZM796.098 319.997V322.061H790.248V319.997H796.098ZM790.961 308.584V322.061H788.48V308.584H790.961ZM795.312 314.119V316.128H790.248V314.119H795.312ZM796.061 308.584V310.657H790.248V308.584H796.061ZM803.693 308.584V322.061H801.23V308.584H803.693ZM807.09 308.584V310.657H797.889V308.584H807.09ZM816.766 314.119V316.183H811.166V314.119H816.766ZM811.814 308.584V322.061H809.334V308.584H811.814ZM818.627 308.584V322.061H816.165V308.584H818.627Z" fill="#00EE76"/>
<g opacity="0.6">
<rect x="504.632" y="360.632" width="137.753" height="55.6066" stroke="white" stroke-width="1.26379"/>
<path d="M536.204 391.571L538.351 380.584H539.73L539.925 382.796L537.592 394.061H536.121L536.204 391.571ZM535.149 380.584L536.87 391.553L536.759 394.061H535.167L532.686 380.584H535.149ZM541.896 391.506L543.609 380.584H546.062L543.59 394.061H541.998L541.896 391.506ZM540.415 380.584L542.572 391.617L542.618 394.061H541.156L538.86 382.778L539.055 380.584H540.415ZM550.805 380.584V394.061H548.343V380.584H550.805ZM563.12 380.584V394.061H560.704L556.205 385.184V394.061H553.836V380.584H556.215L560.75 389.544V380.584H563.12ZM568.53 380.584V394.061H566.049V380.584H568.53ZM575.24 380.584L570.807 387.184L568.122 390.507L567.66 387.971L569.446 385.147L572.232 380.584H575.24ZM572.436 394.061L569.261 387.785L571.029 386.101L575.37 394.061H572.436Z" fill="white"/>
<path d="M577.114 392.839C577.114 392.451 577.238 392.13 577.484 391.877C577.737 391.617 578.083 391.488 578.521 391.488C578.959 391.488 579.302 391.617 579.549 391.877C579.802 392.13 579.928 392.451 579.928 392.839C579.928 393.216 579.802 393.53 579.549 393.783C579.302 394.036 578.959 394.163 578.521 394.163C578.083 394.163 577.737 394.036 577.484 393.783C577.238 393.53 577.114 393.216 577.114 392.839ZM590.669 391.997V394.061H584.819V391.997H590.669ZM585.532 380.584V394.061H583.052V380.584H585.532ZM589.883 386.119V388.128H584.819V386.119H589.883ZM590.632 380.584V382.657H584.819V380.584H590.632ZM598.264 380.584V394.061H595.801V380.584H598.264ZM601.661 380.584V382.657H592.46V380.584H601.661ZM611.337 386.119V388.183H605.737V386.119H611.337ZM606.385 380.584V394.061H603.905V380.584H606.385ZM613.198 380.584V394.061H610.736V380.584H613.198Z" fill="#C91DF4"/>
</g>
<g filter="url(#filter7_d_229_56)">
<rect x="241.733" y="394.733" width="211.2" height="64.5333" stroke="white" stroke-width="1.46667" shape-rendering="crispEdges"/>
</g>
<path d="M278.652 429.644H281.52C281.47 430.797 281.233 431.774 280.811 432.577C280.396 433.371 279.798 433.977 279.017 434.392C278.244 434.807 277.302 435.015 276.192 435.015C275.347 435.015 274.591 434.868 273.925 434.575C273.259 434.274 272.693 433.841 272.228 433.275C271.77 432.709 271.419 432.014 271.175 431.191C270.939 430.36 270.821 429.411 270.821 428.344V425.626C270.821 424.559 270.946 423.61 271.197 422.78C271.447 421.949 271.805 421.247 272.271 420.674C272.744 420.101 273.316 419.668 273.99 419.374C274.663 419.081 275.422 418.934 276.267 418.934C277.384 418.934 278.319 419.145 279.071 419.568C279.823 419.99 280.403 420.61 280.811 421.426C281.219 422.235 281.459 423.224 281.531 424.391H278.662C278.634 423.632 278.541 423.03 278.383 422.586C278.226 422.135 277.979 421.813 277.642 421.62C277.305 421.426 276.847 421.329 276.267 421.329C275.816 421.329 275.426 421.412 275.096 421.577C274.767 421.741 274.498 421.999 274.29 422.35C274.083 422.694 273.929 423.134 273.828 423.671C273.728 424.208 273.678 424.853 273.678 425.605V428.344C273.678 429.067 273.721 429.698 273.807 430.235C273.893 430.772 274.029 431.219 274.215 431.578C274.409 431.928 274.666 432.193 274.989 432.372C275.311 432.544 275.712 432.63 276.192 432.63C276.772 432.63 277.234 432.544 277.578 432.372C277.921 432.193 278.176 431.889 278.34 431.459C278.512 431.023 278.616 430.417 278.652 429.644ZM292.922 425.583V427.979H286.423V425.583H292.922ZM287.175 419.16V434.8H284.296V419.16H287.175ZM295.081 419.16V434.8H292.224V419.16H295.081ZM304.217 421.63L300.64 434.8H297.61L302.541 419.16H304.432L304.217 421.63ZM307.042 434.8L303.465 421.63L303.218 419.16H305.13L310.082 434.8H307.042ZM307.139 428.978V431.373H299.963V428.978H307.139ZM317.005 419.16V434.8H314.147V419.16H317.005ZM320.947 419.16V421.566H310.269V419.16H320.947ZM330.792 429.644H333.66C333.61 430.797 333.373 431.774 332.951 432.577C332.536 433.371 331.938 433.977 331.157 434.392C330.384 434.807 329.442 435.015 328.332 435.015C327.487 435.015 326.731 434.868 326.065 434.575C325.399 434.274 324.833 433.841 324.368 433.275C323.91 432.709 323.559 432.014 323.315 431.191C323.079 430.36 322.961 429.411 322.961 428.344V425.626C322.961 424.559 323.086 423.61 323.337 422.78C323.587 421.949 323.945 421.247 324.411 420.674C324.884 420.101 325.456 419.668 326.13 419.374C326.803 419.081 327.562 418.934 328.407 418.934C329.524 418.934 330.459 419.145 331.211 419.568C331.963 419.99 332.543 420.61 332.951 421.426C333.359 422.235 333.599 423.224 333.671 424.391H330.802C330.774 423.632 330.681 423.03 330.523 422.586C330.366 422.135 330.119 421.813 329.782 421.62C329.445 421.426 328.987 421.329 328.407 421.329C327.956 421.329 327.565 421.412 327.236 421.577C326.907 421.741 326.638 421.999 326.43 422.35C326.223 422.694 326.069 423.134 325.968 423.671C325.868 424.208 325.818 424.853 325.818 425.605V428.344C325.818 429.067 325.861 429.698 325.947 430.235C326.033 430.772 326.169 431.219 326.355 431.578C326.549 431.928 326.806 432.193 327.129 432.372C327.451 432.544 327.852 432.63 328.332 432.63C328.912 432.63 329.374 432.544 329.718 432.372C330.061 432.193 330.315 431.889 330.48 431.459C330.652 431.023 330.756 430.417 330.792 429.644ZM345.062 425.583V427.979H338.563V425.583H345.062ZM339.315 419.16V434.8H336.436V419.16H339.315ZM347.221 419.16V434.8H344.364V419.16H347.221ZM357.732 419.16H360.611V429.966C360.611 431.162 360.389 432.133 359.945 432.877C359.501 433.622 358.896 434.166 358.129 434.51C357.363 434.847 356.5 435.015 355.54 435.015C354.559 435.015 353.686 434.847 352.919 434.51C352.153 434.166 351.552 433.622 351.115 432.877C350.685 432.133 350.47 431.162 350.47 429.966V419.16H353.338V429.966C353.338 430.675 353.424 431.223 353.596 431.61C353.775 431.996 354.026 432.261 354.348 432.405C354.67 432.548 355.068 432.62 355.54 432.62C356.013 432.62 356.411 432.548 356.733 432.405C357.055 432.261 357.302 431.996 357.474 431.61C357.646 431.223 357.732 430.675 357.732 429.966V419.16ZM364.816 419.16H367.383L370.788 430.331L374.161 419.16H376.492L371.852 434.8H369.703L364.816 419.16ZM363.817 419.16H366.234L366.61 429.3V434.8H363.817V419.16ZM375.311 419.16H377.739V434.8H374.946V429.3L375.311 419.16Z" fill="white"/>
<path d="M381.191 433.382C381.191 432.931 381.335 432.559 381.621 432.265C381.915 431.964 382.316 431.814 382.824 431.814C383.333 431.814 383.73 431.964 384.017 432.265C384.31 432.559 384.457 432.931 384.457 433.382C384.457 433.819 384.31 434.184 384.017 434.478C383.73 434.772 383.333 434.918 382.824 434.918C382.316 434.918 381.915 434.772 381.621 434.478C381.335 434.184 381.191 433.819 381.191 433.382ZM396.923 432.405V434.8H390.134V432.405H396.923ZM390.961 419.16V434.8H388.082V419.16H390.961ZM396.01 425.583V427.914H390.134V425.583H396.01ZM396.88 419.16V421.566H390.134V419.16H396.88ZM405.736 419.16V434.8H402.879V419.16H405.736ZM409.678 419.16V421.566H399.001V419.16H409.678ZM420.909 425.583V427.979H414.41V425.583H420.909ZM415.162 419.16V434.8H412.283V419.16H415.162ZM423.068 419.16V434.8H420.211V419.16H423.068Z" fill="#00EE76"/>
<g filter="url(#filter8_d_229_56)">
<rect x="379.787" y="48.7874" width="171.664" height="69.2955" stroke="white" stroke-width="1.5749" shape-rendering="crispEdges"/>
</g>
<path d="M417.919 85.7243H420.999C420.945 86.9624 420.691 88.0121 420.237 88.8733C419.791 89.7269 419.149 90.3767 418.311 90.8227C417.48 91.2687 416.469 91.4918 415.277 91.4918C414.37 91.4918 413.559 91.3341 412.843 91.0188C412.128 90.6958 411.521 90.2306 411.021 89.6231C410.529 89.0156 410.152 88.2697 409.891 87.3853C409.637 86.4933 409.51 85.4744 409.51 84.3286V81.4103C409.51 80.2645 409.644 79.2455 409.914 78.3535C410.183 77.4615 410.567 76.7079 411.067 76.0927C411.575 75.4775 412.19 75.0122 412.913 74.6969C413.636 74.3817 414.451 74.224 415.358 74.224C416.558 74.224 417.561 74.4509 418.369 74.9046C419.176 75.3583 419.799 76.0235 420.237 76.9001C420.676 77.7691 420.933 78.8303 421.01 80.0837H417.93C417.9 79.2686 417.8 78.6227 417.63 78.1459C417.461 77.6614 417.196 77.3154 416.835 77.1077C416.473 76.9001 415.981 76.7963 415.358 76.7963C414.874 76.7963 414.455 76.8847 414.101 77.0616C413.747 77.2385 413.459 77.5153 413.236 77.8921C413.013 78.2612 412.847 78.7342 412.74 79.3109C412.632 79.8876 412.578 80.5797 412.578 81.3872V84.3286C412.578 85.1053 412.624 85.782 412.717 86.3587C412.809 86.9355 412.955 87.4161 413.155 87.8006C413.363 88.1774 413.639 88.4619 413.985 88.6542C414.331 88.8387 414.762 88.931 415.277 88.931C415.9 88.931 416.396 88.8387 416.765 88.6542C417.134 88.4619 417.407 88.1351 417.584 87.6737C417.769 87.2046 417.88 86.5548 417.919 85.7243ZM433.242 81.3641V83.9364H426.264V81.3641H433.242ZM427.071 74.4662V91.2611H423.98V74.4662H427.071ZM435.561 74.4662V91.2611H432.492V74.4662H435.561ZM442.429 74.4662V91.2611H439.361V74.4662H442.429ZM446.218 74.4662H451.443C452.558 74.4662 453.508 74.6585 454.292 75.043C455.076 75.4275 455.672 75.9965 456.08 76.7502C456.495 77.5038 456.703 78.4304 456.703 79.5301C456.703 80.4067 456.576 81.168 456.322 81.814C456.076 82.4522 455.722 82.9867 455.261 83.4173C454.807 83.848 454.257 84.1825 453.611 84.4209L452.677 84.9515H448.352L448.34 82.3792H451.374C451.874 82.3792 452.289 82.2677 452.619 82.0447C452.958 81.8217 453.208 81.5141 453.369 81.1219C453.538 80.722 453.623 80.2645 453.623 79.7492C453.623 79.1879 453.546 78.7072 453.392 78.3074C453.246 77.8998 453.012 77.5884 452.689 77.373C452.373 77.1577 451.958 77.0501 451.443 77.0501H449.309V91.2611H446.218V74.4662ZM453.946 91.2611L450.797 83.7403H454.038L457.245 91.0996V91.2611H453.946ZM465.521 85.1937H462.025V82.6099H465.509C466.047 82.6099 466.478 82.4984 466.801 82.2754C467.132 82.0447 467.37 81.7255 467.516 81.318C467.67 80.9104 467.747 80.449 467.747 79.9338C467.747 79.4339 467.67 78.9649 467.516 78.5265C467.37 78.0805 467.132 77.7229 466.801 77.4538C466.478 77.1846 466.051 77.0501 465.521 77.0501H462.96V91.2611H459.88V74.4662H465.521C466.636 74.4662 467.593 74.7008 468.393 75.1699C469.192 75.639 469.804 76.2849 470.227 77.1077C470.657 77.9229 470.873 78.8572 470.873 79.9107C470.873 80.995 470.657 81.9332 470.227 82.7252C469.796 83.5096 469.181 84.1171 468.381 84.5477C467.589 84.9784 466.636 85.1937 465.521 85.1937Z" fill="white"/>
<path d="M473.992 89.7384C473.992 89.254 474.146 88.8541 474.454 88.5388C474.769 88.2158 475.2 88.0544 475.746 88.0544C476.292 88.0544 476.718 88.2158 477.026 88.5388C477.341 88.8541 477.499 89.254 477.499 89.7384C477.499 90.2075 477.341 90.5997 477.026 90.915C476.718 91.2303 476.292 91.3879 475.746 91.3879C475.2 91.3879 474.769 91.2303 474.454 90.915C474.146 90.5997 473.992 90.2075 473.992 89.7384ZM486.928 83.8095H483.491L483.479 81.5256H486.467C486.928 81.5256 487.312 81.441 487.62 81.2718C487.935 81.095 488.17 80.8412 488.324 80.5105C488.485 80.1799 488.566 79.7761 488.566 79.2994C488.566 78.7611 488.493 78.3304 488.347 78.0075C488.208 77.6768 487.985 77.4346 487.678 77.2808C487.37 77.127 486.97 77.0501 486.478 77.0501H484.483V91.2611H481.391V74.4662H486.478C487.293 74.4662 488.02 74.5585 488.658 74.7431C489.296 74.92 489.839 75.1968 490.285 75.5736C490.731 75.9504 491.069 76.4272 491.3 77.0039C491.538 77.573 491.657 78.2497 491.657 79.0341C491.657 79.7262 491.515 80.3606 491.23 80.9373C490.946 81.5141 490.515 81.987 489.939 82.3561C489.362 82.7252 488.624 82.9367 487.724 82.9905L486.928 83.8095ZM486.813 91.2611H482.556L483.871 88.6888H486.813C487.289 88.6888 487.674 88.5888 487.966 88.3889C488.266 88.1889 488.489 87.9121 488.635 87.5584C488.781 87.1969 488.854 86.7817 488.854 86.3126C488.854 85.8051 488.789 85.3629 488.658 84.9861C488.535 84.6093 488.331 84.3209 488.047 84.121C487.77 83.9133 487.397 83.8095 486.928 83.8095H484.067L484.09 81.5256H487.655L488.381 82.4138C489.227 82.4061 489.912 82.5907 490.435 82.9675C490.957 83.3443 491.338 83.8326 491.576 84.4324C491.815 85.0245 491.934 85.6628 491.934 86.3472C491.934 87.4161 491.734 88.3158 491.334 89.0464C490.934 89.7769 490.354 90.3306 489.592 90.7074C488.831 91.0765 487.905 91.2611 486.813 91.2611ZM506.842 74.4662V91.2611H503.832L498.226 80.1991V91.2611H495.273V74.4662H498.237L503.889 85.632V74.4662H506.842ZM516.029 83.8095H512.592L512.58 81.5256H515.568C516.029 81.5256 516.414 81.441 516.721 81.2718C517.036 81.095 517.271 80.8412 517.425 80.5105C517.586 80.1799 517.667 79.7761 517.667 79.2994C517.667 78.7611 517.594 78.3304 517.448 78.0075C517.309 77.6768 517.086 77.4346 516.779 77.2808C516.471 77.127 516.071 77.0501 515.579 77.0501H513.584V91.2611H510.492V74.4662H515.579C516.394 74.4662 517.121 74.5585 517.759 74.7431C518.398 74.92 518.94 75.1968 519.386 75.5736C519.832 75.9504 520.17 76.4272 520.401 77.0039C520.639 77.573 520.758 78.2497 520.758 79.0341C520.758 79.7262 520.616 80.3606 520.332 80.9373C520.047 81.5141 519.616 81.987 519.04 82.3561C518.463 82.7252 517.725 82.9367 516.825 82.9905L516.029 83.8095ZM515.914 91.2611H511.657L512.972 88.6888H515.914C516.391 88.6888 516.775 88.5888 517.067 88.3889C517.367 88.1889 517.59 87.9121 517.736 87.5584C517.882 87.1969 517.955 86.7817 517.955 86.3126C517.955 85.8051 517.89 85.3629 517.759 84.9861C517.636 84.6093 517.432 84.3209 517.148 84.121C516.871 83.9133 516.498 83.8095 516.029 83.8095H513.168L513.192 81.5256H516.756L517.482 82.4138C518.328 82.4061 519.013 82.5907 519.536 82.9675C520.059 83.3443 520.439 83.8326 520.678 84.4324C520.916 85.0245 521.035 85.6628 521.035 86.3472C521.035 87.4161 520.835 88.3158 520.435 89.0464C520.036 89.7769 519.455 90.3306 518.694 90.7074C517.932 91.0765 517.006 91.2611 515.914 91.2611Z" fill="#00EE76"/>
<g filter="url(#filter9_d_229_56)">
<rect x="16.6433" y="382.643" width="146.573" height="56.7135" stroke="white" stroke-width="1.28654" shape-rendering="crispEdges"/>
</g>
<path d="M43.4246 414.833L45.6107 403.648H47.0147L47.2126 405.9L44.838 417.368H43.3398L43.4246 414.833ZM42.3504 403.648L44.103 414.815L43.99 417.368H42.3692L39.8439 403.648H42.3504ZM49.2196 414.767L50.9629 403.648H53.4599L50.944 417.368H49.3233L49.2196 414.767ZM47.712 403.648L49.9075 414.88L49.9546 417.368H48.4658L46.1289 405.882L46.3268 403.648H47.712ZM58.2886 403.648V417.368H55.7821V403.648H58.2886ZM70.8252 403.648V417.368H68.3658L63.7863 408.332V417.368H61.374V403.648H63.7957L68.4129 412.77V403.648H70.8252ZM76.3323 403.648V417.368H73.8069V403.648H76.3323ZM83.1638 403.648L78.6503 410.367L75.9177 413.75L75.4465 411.168L77.2651 408.294L80.1014 403.648H83.1638ZM80.3087 417.368L77.0767 410.979L78.8764 409.264L83.2958 417.368H80.3087ZM87.6533 403.648V417.368H85.1468V403.648H87.6533ZM95.6763 403.648V417.368H93.1698V403.648H95.6763ZM99.1345 403.648V405.759H89.7681V403.648H99.1345Z" fill="white"/>
<path d="M101.457 416.124C101.457 415.729 101.582 415.402 101.834 415.144C102.091 414.88 102.443 414.749 102.889 414.749C103.335 414.749 103.684 414.88 103.935 415.144C104.192 415.402 104.321 415.729 104.321 416.124C104.321 416.508 104.192 416.828 103.935 417.085C103.684 417.343 103.335 417.472 102.889 417.472C102.443 417.472 102.091 417.343 101.834 417.085C101.582 416.828 101.457 416.508 101.457 416.124ZM112.024 411.281H109.216L109.206 409.415H111.647C112.024 409.415 112.338 409.346 112.589 409.208C112.847 409.063 113.038 408.856 113.164 408.586C113.296 408.316 113.362 407.986 113.362 407.597C113.362 407.157 113.302 406.805 113.183 406.541C113.07 406.271 112.888 406.073 112.636 405.948C112.385 405.822 112.058 405.759 111.656 405.759H110.026V417.368H107.501V403.648H111.656C112.322 403.648 112.916 403.724 113.437 403.875C113.959 404.019 114.402 404.245 114.766 404.553C115.13 404.861 115.407 405.25 115.595 405.721C115.79 406.186 115.887 406.739 115.887 407.38C115.887 407.945 115.771 408.464 115.539 408.935C115.306 409.406 114.954 409.792 114.483 410.094C114.012 410.395 113.409 410.568 112.674 410.612L112.024 411.281ZM111.93 417.368H108.453L109.527 415.267H111.93C112.319 415.267 112.633 415.185 112.872 415.022C113.117 414.859 113.299 414.632 113.418 414.343C113.538 414.048 113.597 413.709 113.597 413.326C113.597 412.911 113.544 412.55 113.437 412.242C113.337 411.934 113.17 411.699 112.938 411.535C112.712 411.366 112.407 411.281 112.024 411.281H109.687L109.706 409.415H112.617L113.211 410.141C113.902 410.135 114.461 410.285 114.888 410.593C115.316 410.901 115.627 411.3 115.821 411.79C116.016 412.274 116.113 412.795 116.113 413.354C116.113 414.227 115.95 414.962 115.623 415.559C115.297 416.156 114.822 416.608 114.201 416.916C113.579 417.217 112.822 417.368 111.93 417.368ZM128.292 403.648V417.368H125.832L121.253 408.332V417.368H118.841V403.648H121.262L125.88 412.77V403.648H128.292ZM135.797 411.281H132.989L132.979 409.415H135.42C135.797 409.415 136.111 409.346 136.362 409.208C136.62 409.063 136.811 408.856 136.937 408.586C137.069 408.316 137.135 407.986 137.135 407.597C137.135 407.157 137.075 406.805 136.956 406.541C136.843 406.271 136.66 406.073 136.409 405.948C136.158 405.822 135.831 405.759 135.429 405.759H133.799V417.368H131.274V403.648H135.429C136.095 403.648 136.689 403.724 137.21 403.875C137.731 404.019 138.174 404.245 138.539 404.553C138.903 404.861 139.179 405.25 139.368 405.721C139.563 406.186 139.66 406.739 139.66 407.38C139.66 407.945 139.544 408.464 139.311 408.935C139.079 409.406 138.727 409.792 138.256 410.094C137.785 410.395 137.182 410.568 136.447 410.612L135.797 411.281ZM135.702 417.368H132.225L133.3 415.267H135.702C136.092 415.267 136.406 415.185 136.645 415.022C136.89 414.859 137.072 414.632 137.191 414.343C137.311 414.048 137.37 413.709 137.37 413.326C137.37 412.911 137.317 412.55 137.21 412.242C137.11 411.934 136.943 411.699 136.711 411.535C136.484 411.366 136.18 411.281 135.797 411.281H133.46L133.479 409.415H136.39L136.984 410.141C137.675 410.135 138.234 410.285 138.661 410.593C139.088 410.901 139.399 411.3 139.594 411.79C139.789 412.274 139.886 412.795 139.886 413.354C139.886 414.227 139.723 414.962 139.396 415.559C139.069 416.156 138.595 416.608 137.973 416.916C137.351 417.217 136.594 417.368 135.702 417.368Z" fill="#00EE76"/>
<defs>
<filter id="filter0_d_229_56" x="313" y="131" width="190.438" height="100.361" filterUnits="userSpaceOnUse" color-interpolation-filters="sRGB">
<feFlood flood-opacity="0" result="BackgroundImageFix"/>
<feColorMatrix in="SourceAlpha" type="matrix" values="0 0 0 0 0 0 0 0 0 0 0 0 0 0 0 0 0 0 127 0" result="hardAlpha"/>
<feOffset/>
<feGaussianBlur stdDeviation="9.5"/>
<feComposite in2="hardAlpha" operator="out"/>
<feColorMatrix type="matrix" values="0 0 0 0 1 0 0 0 0 1 0 0 0 0 1 0 0 0 1 0"/>
<feBlend mode="normal" in2="BackgroundImageFix" result="effect1_dropShadow_229_56"/>
<feBlend mode="normal" in="SourceGraphic" in2="effect1_dropShadow_229_56" result="shape"/>
</filter>
<filter id="filter1_d_229_56" x="666.899" y="413.899" width="197.202" height="69.2023" filterUnits="userSpaceOnUse" color-interpolation-filters="sRGB">
<feFlood flood-opacity="0" result="BackgroundImageFix"/>
<feColorMatrix in="SourceAlpha" type="matrix" values="0 0 0 0 0 0 0 0 0 0 0 0 0 0 0 0 0 0 127 0" result="hardAlpha"/>
<feOffset/>
<feGaussianBlur stdDeviation="6.55057"/>
<feComposite in2="hardAlpha" operator="out"/>
<feColorMatrix type="matrix" values="0 0 0 0 1 0 0 0 0 1 0 0 0 0 1 0 0 0 1 0"/>
<feBlend mode="normal" in2="BackgroundImageFix" result="effect1_dropShadow_229_56"/>
<feBlend mode="normal" in="SourceGraphic" in2="effect1_dropShadow_229_56" result="shape"/>
</filter>
<filter id="filter2_d_229_56" x="142.899" y="111.899" width="131.314" height="69.2023" filterUnits="userSpaceOnUse" color-interpolation-filters="sRGB">
<feFlood flood-opacity="0" result="BackgroundImageFix"/>
<feColorMatrix in="SourceAlpha" type="matrix" values="0 0 0 0 0 0 0 0 0 0 0 0 0 0 0 0 0 0 127 0" result="hardAlpha"/>
<feOffset/>
<feGaussianBlur stdDeviation="6.55057"/>
<feComposite in2="hardAlpha" operator="out"/>
<feColorMatrix type="matrix" values="0 0 0 0 1 0 0 0 0 1 0 0 0 0 1 0 0 0 1 0"/>
<feBlend mode="normal" in2="BackgroundImageFix" result="effect1_dropShadow_229_56"/>
<feBlend mode="normal" in="SourceGraphic" in2="effect1_dropShadow_229_56" result="shape"/>
</filter>
<filter id="filter3_d_229_56" x="92.9381" y="22.9381" width="199.519" height="90.1239" filterUnits="userSpaceOnUse" color-interpolation-filters="sRGB">
<feFlood flood-opacity="0" result="BackgroundImageFix"/>
<feColorMatrix in="SourceAlpha" type="matrix" values="0 0 0 0 0 0 0 0 0 0 0 0 0 0 0 0 0 0 127 0" result="hardAlpha"/>
<feOffset/>
<feGaussianBlur stdDeviation="8.53097"/>
<feComposite in2="hardAlpha" operator="out"/>
<feColorMatrix type="matrix" values="0 0 0 0 1 0 0 0 0 1 0 0 0 0 1 0 0 0 1 0"/>
<feBlend mode="normal" in2="BackgroundImageFix" result="effect1_dropShadow_229_56"/>
<feBlend mode="normal" in="SourceGraphic" in2="effect1_dropShadow_229_56" result="shape"/>
</filter>
<filter id="filter4_d_229_56" x="582" y="0" width="255.778" height="108" filterUnits="userSpaceOnUse" color-interpolation-filters="sRGB">
<feFlood flood-opacity="0" result="BackgroundImageFix"/>
<feColorMatrix in="SourceAlpha" type="matrix" values="0 0 0 0 0 0 0 0 0 0 0 0 0 0 0 0 0 0 127 0" result="hardAlpha"/>
<feOffset/>
<feGaussianBlur stdDeviation="9.5"/>
<feComposite in2="hardAlpha" operator="out"/>
<feColorMatrix type="matrix" values="0 0 0 0 1 0 0 0 0 1 0 0 0 0 1 0 0 0 1 0"/>
<feBlend mode="normal" in2="BackgroundImageFix" result="effect1_dropShadow_229_56"/>
<feBlend mode="normal" in="SourceGraphic" in2="effect1_dropShadow_229_56" result="shape"/>
</filter>
<filter id="filter5_d_229_56" x="360" y="224" width="288.445" height="115.724" filterUnits="userSpaceOnUse" color-interpolation-filters="sRGB">
<feFlood flood-opacity="0" result="BackgroundImageFix"/>
<feColorMatrix in="SourceAlpha" type="matrix" values="0 0 0 0 0 0 0 0 0 0 0 0 0 0 0 0 0 0 127 0" result="hardAlpha"/>
<feOffset/>
<feGaussianBlur stdDeviation="9.5"/>
<feComposite in2="hardAlpha" operator="out"/>
<feColorMatrix type="matrix" values="0 0 0 0 1 0 0 0 0 1 0 0 0 0 1 0 0 0 1 0"/>
<feBlend mode="normal" in2="BackgroundImageFix" result="effect1_dropShadow_229_56"/>
<feBlend mode="normal" in="SourceGraphic" in2="effect1_dropShadow_229_56" result="shape"/>
</filter>
<filter id="filter6_d_229_56" x="645" y="269" width="221.249" height="94.8703" filterUnits="userSpaceOnUse" color-interpolation-filters="sRGB">
<feFlood flood-opacity="0" result="BackgroundImageFix"/>
<feColorMatrix in="SourceAlpha" type="matrix" values="0 0 0 0 0 0 0 0 0 0 0 0 0 0 0 0 0 0 127 0" result="hardAlpha"/>
<feOffset/>
<feGaussianBlur stdDeviation="9.5"/>
<feComposite in2="hardAlpha" operator="out"/>
<feColorMatrix type="matrix" values="0 0 0 0 1 0 0 0 0 1 0 0 0 0 1 0 0 0 1 0"/>
<feBlend mode="normal" in2="BackgroundImageFix" result="effect1_dropShadow_229_56"/>
<feBlend mode="normal" in="SourceGraphic" in2="effect1_dropShadow_229_56" result="shape"/>
</filter>
<filter id="filter7_d_229_56" x="222" y="375" width="250.667" height="104" filterUnits="userSpaceOnUse" color-interpolation-filters="sRGB">
<feFlood flood-opacity="0" result="BackgroundImageFix"/>
<feColorMatrix in="SourceAlpha" type="matrix" values="0 0 0 0 0 0 0 0 0 0 0 0 0 0 0 0 0 0 127 0" result="hardAlpha"/>
<feOffset/>
<feGaussianBlur stdDeviation="9.5"/>
<feComposite in2="hardAlpha" operator="out"/>
<feColorMatrix type="matrix" values="0 0 0 0 1 0 0 0 0 1 0 0 0 0 1 0 0 0 1 0"/>
<feBlend mode="normal" in2="BackgroundImageFix" result="effect1_dropShadow_229_56"/>
<feBlend mode="normal" in="SourceGraphic" in2="effect1_dropShadow_229_56" result="shape"/>
</filter>
<filter id="filter8_d_229_56" x="360" y="29" width="211.239" height="108.87" filterUnits="userSpaceOnUse" color-interpolation-filters="sRGB">
<feFlood flood-opacity="0" result="BackgroundImageFix"/>
<feColorMatrix in="SourceAlpha" type="matrix" values="0 0 0 0 0 0 0 0 0 0 0 0 0 0 0 0 0 0 127 0" result="hardAlpha"/>
<feOffset/>
<feGaussianBlur stdDeviation="9.5"/>
<feComposite in2="hardAlpha" operator="out"/>
<feColorMatrix type="matrix" values="0 0 0 0 1 0 0 0 0 1 0 0 0 0 1 0 0 0 1 0"/>
<feBlend mode="normal" in2="BackgroundImageFix" result="effect1_dropShadow_229_56"/>
<feBlend mode="normal" in="SourceGraphic" in2="effect1_dropShadow_229_56" result="shape"/>
</filter>
<filter id="filter9_d_229_56" x="0.478872" y="366.479" width="178.902" height="89.0423" filterUnits="userSpaceOnUse" color-interpolation-filters="sRGB">
<feFlood flood-opacity="0" result="BackgroundImageFix"/>
<feColorMatrix in="SourceAlpha" type="matrix" values="0 0 0 0 0 0 0 0 0 0 0 0 0 0 0 0 0 0 127 0" result="hardAlpha"/>
<feOffset/>
<feGaussianBlur stdDeviation="7.76056"/>
<feComposite in2="hardAlpha" operator="out"/>
<feColorMatrix type="matrix" values="0 0 0 0 1 0 0 0 0 1 0 0 0 0 1 0 0 0 1 0"/>
<feBlend mode="normal" in2="BackgroundImageFix" result="effect1_dropShadow_229_56"/>
<feBlend mode="normal" in="SourceGraphic" in2="effect1_dropShadow_229_56" result="shape"/>
</filter>
</defs>
</svg>
