<svg width="117" height="82" viewBox="0 0 117 82" fill="none" xmlns="http://www.w3.org/2000/svg">
<path d="M10.1074 10.5538V44H2.82547V10.5538H10.1074ZM24.5104 44H18.4919L18.5379 38.0964H24.5104C25.904 38.0964 27.0066 37.8284 27.8183 37.2924C28.6452 36.7564 29.2348 35.8835 29.5871 34.6736C29.9546 33.4638 30.1384 31.8558 30.1384 29.8497V24.6811C30.1384 23.1803 30.0388 21.9093 29.8397 20.8679C29.6407 19.8112 29.3191 18.9689 28.8749 18.341C28.4461 17.6978 27.8719 17.2308 27.1521 16.9398C26.4323 16.6335 25.5441 16.4804 24.4874 16.4804H18.3771V10.5538H24.4874C26.4323 10.5538 28.2011 10.8754 29.7938 11.5186C31.3865 12.1464 32.7571 13.073 33.9057 14.2981C35.0542 15.5079 35.9348 16.9857 36.5474 18.7316C37.1599 20.4774 37.4662 22.4759 37.4662 24.7271V29.8497C37.4662 32.0855 37.1599 34.084 36.5474 35.8452C35.9348 37.591 35.0542 39.0688 33.9057 40.2786C32.7571 41.4885 31.3865 42.415 29.7938 43.0582C28.2164 43.6861 26.4553 44 24.5104 44ZM22.7416 10.5538V44H15.4367V10.5538H22.7416ZM61.4253 38.0964V44H46.8385V38.0964H61.4253ZM49.2505 10.5538V44H41.9456V10.5538H49.2505ZM59.4957 23.969V29.6659H46.8385V23.969H59.4957ZM61.4253 10.5538V16.4804H46.8385V10.5538H61.4253ZM88.6922 10.5538V44H81.5482L72.084 23.188V44H64.9629V10.5538H72.107L81.5941 31.4806V10.5538H88.6922ZM98.7307 10.5538L103.417 25.3473L108.103 10.5538H115.982L107.115 31.9171V44H99.7414V31.9171L90.8745 10.5538H98.7307Z" fill="white"/>
<path d="M2.81445 51.0491H20.1257H37.4369L28.7813 58.6612L20.1257 66.2734L2.81445 81.4978V51.0491Z" fill="#C91DF4"/>
</svg>
